<?xml version="1.0" encoding="UTF-8" standalone="no"?>
<!-- Created with Inkscape (http://www.inkscape.org/) -->

<svg
   xmlns:dc="http://purl.org/dc/elements/1.1/"
   xmlns:cc="http://creativecommons.org/ns#"
   xmlns:rdf="http://www.w3.org/1999/02/22-rdf-syntax-ns#"
   xmlns:svg="http://www.w3.org/2000/svg"
   xmlns="http://www.w3.org/2000/svg"
   xmlns:sodipodi="http://sodipodi.sourceforge.net/DTD/sodipodi-0.dtd"
   xmlns:inkscape="http://www.inkscape.org/namespaces/inkscape"
   width="48"
   height="48"
   viewBox="0 0 12.7 12.7"
   version="1.1"
   id="svg8"
   inkscape:version="0.92.3 (2405546, 2018-03-11)"
   sodipodi:docname="9gag.svg">
  <defs
     id="defs2">
    <clipPath
       clipPathUnits="userSpaceOnUse"
       id="clipPath5343">
      <path
         style="fill:#7aafff;fill-opacity:1;stroke:none;stroke-width:2.01045942;stroke-linecap:round;stroke-linejoin:round;stroke-miterlimit:4;stroke-dasharray:none;stroke-opacity:1"
         d="m 3.0688351,285.55677 c -1.613568,1.19596 -2.5662181,3.08478 -2.56883509,5.09323 0,3.50701 2.84299219,6.35 6.35000009,6.35 C 10.357008,297 13.2,294.15701 13.2,290.65 c -0.0022,-0.84296 -0.452078,-2.71271 -0.500228,-2.45359 -0.02424,0.84121 -0.571809,2.35322 -0.602031,2.23138 -0.0026,-0.50621 -0.2876,-1.42626 -0.305098,-1.19509 0.02804,1.40695 -1.48374,3.17677 -2.3076623,3.50038 -0.8310457,0.36942 -1.7371637,0.56412 -2.6117267,0.56534 -0.1736918,2e-5 -1.1686519,-0.13807 -1.6443439,-0.70435 -0.826376,-0.89253 -0.00201,-1.09994 0.4625039,-1.27331 0.5055862,-0.18871 1.030887,-0.30969 1.5203212,-0.42013 0.7456988,-0.16826 0.4710618,-0.52626 0.1049028,-0.6289 -0.9266939,-0.25976 -2.044886,0.33543 -2.8654579,0.30593 -0.848406,-0.0291 -0.804618,-1.69621 -0.1405601,-1.76217 0.7394212,-0.0734 1.6665151,-0.51079 1.461779,-0.65673 -0.8303549,-0.61672 -0.9617369,-0.79081 -1.0595549,-1.16418 -0.1480201,-0.565 0.341282,-1.03557 0.05777,-0.96356 -0.2596169,0.08 -0.4110678,0.15641 -0.5988619,0.25715 -0.1672929,0.0897 -0.293814,0.0546 -0.6751841,0.002 -0.3249449,-0.045 -0.3870058,-0.0557 -0.3755009,-0.25673 0.0115,-0.20097 0.07295,-0.52125 -0.05223,-0.47648 z"
         id="path5345"
         inkscape:connector-curvature="0"
         sodipodi:nodetypes="ccscccccccssscscscssscc" />
    </clipPath>
    <clipPath
       clipPathUnits="userSpaceOnUse"
       id="clipPath4543">
      <path
         style="opacity:1;vector-effect:none;fill:#666666;fill-opacity:1;stroke:none;stroke-width:2.11666656;stroke-linecap:round;stroke-linejoin:round;stroke-miterlimit:4;stroke-dasharray:none;stroke-dashoffset:0;stroke-opacity:1"
         d="m 1.7760088,291.5696 c -1.82613339,0.17434 -3.2940315,0.91934 -3.4903996,2.16451 -0.2629054,1.66729 1.5678591,3.34127 4.0891213,3.73893 1.2172084,0.19119 2.434234,0.053 3.3807423,-0.38387 0.7310194,0.5283 1.669357,0.90078 2.6704721,1.06008 2.5212691,0.39771 4.7783381,-0.6315 5.0412801,-2.2988 0.262905,-1.6673 -1.490667,-1.94329 -4.257163,-2.17938 -2.7664958,-0.23609 -3.6163896,-1.68839 -5.7470448,-2.04575 -0.5660191,-0.0893 -1.1380808,-0.10817 -1.6870084,-0.0557 z"
         id="path4545"
         inkscape:connector-curvature="0"
         sodipodi:nodetypes="cccccczcc" />
    </clipPath>
    <filter
       color-interpolation-filters="sRGB"
       filterUnits="userSpaceOnUse"
       height="236.149"
       width="298.822"
       y="40.5225"
       x="-21.4896"
       id="filter0_d">
      <feFlood
         id="feFlood862"
         result="BackgroundImageFix"
         flood-opacity="0" />
      <feColorMatrix
         id="feColorMatrix864"
         values="0 0 0 0 0 0 0 0 0 0 0 0 0 0 0 0 0 0 127 0"
         type="matrix"
         in="SourceAlpha" />
      <feOffset
         id="feOffset866" />
      <feGaussianBlur
         id="feGaussianBlur868"
         stdDeviation="10.6667" />
      <feColorMatrix
         id="feColorMatrix870"
         values="0 0 0 0 0 0 0 0 0 0 0 0 0 0 0 0 0 0 0.25 0"
         type="matrix" />
      <feBlend
         id="feBlend872"
         result="effect1_dropShadow"
         in2="BackgroundImageFix"
         mode="overlay" />
      <feBlend
         id="feBlend874"
         result="shape"
         in2="effect1_dropShadow"
         in="SourceGraphic"
         mode="normal" />
    </filter>
    <filter
       color-interpolation-filters="sRGB"
       filterUnits="userSpaceOnUse"
       height="297.347"
       width="122.667"
       y="-20.6735"
       x="154.667"
       id="filter1_d">
      <feFlood
         id="feFlood877"
         result="BackgroundImageFix"
         flood-opacity="0" />
      <feColorMatrix
         id="feColorMatrix879"
         values="0 0 0 0 0 0 0 0 0 0 0 0 0 0 0 0 0 0 127 0"
         type="matrix"
         in="SourceAlpha" />
      <feOffset
         id="feOffset881" />
      <feGaussianBlur
         id="feGaussianBlur883"
         stdDeviation="10.6667" />
      <feColorMatrix
         id="feColorMatrix885"
         values="0 0 0 0 0 0 0 0 0 0 0 0 0 0 0 0 0 0 0.25 0"
         type="matrix" />
      <feBlend
         id="feBlend887"
         result="effect1_dropShadow"
         in2="BackgroundImageFix"
         mode="overlay" />
      <feBlend
         id="feBlend889"
         result="shape"
         in2="effect1_dropShadow"
         in="SourceGraphic"
         mode="normal" />
    </filter>
    <linearGradient
       gradientUnits="userSpaceOnUse"
       y2="255.34"
       x2="127.844"
       y1="0.659988"
       x1="127.844"
       id="paint0_linear">
      <stop
         id="stop892"
         stop-color="white" />
      <stop
         id="stop894"
         stop-opacity="0"
         stop-color="white"
         offset="1" />
    </linearGradient>
    <clipPath
       id="clipPath5343-6"
       clipPathUnits="userSpaceOnUse">
      <path
         sodipodi:nodetypes="ccscccccccssscscscssscc"
         inkscape:connector-curvature="0"
         id="path5345-4"
         d="m 3.0688351,285.55677 c -1.613568,1.19596 -2.5662181,3.08478 -2.56883509,5.09323 0,3.50701 2.84299219,6.35 6.35000009,6.35 C 10.357008,297 13.2,294.15701 13.2,290.65 c -0.0022,-0.84296 -0.452078,-2.71271 -0.500228,-2.45359 -0.02424,0.84121 -0.571809,2.35322 -0.602031,2.23138 -0.0026,-0.50621 -0.2876,-1.42626 -0.305098,-1.19509 0.02804,1.40695 -1.48374,3.17677 -2.3076623,3.50038 -0.8310457,0.36942 -1.7371637,0.56412 -2.6117267,0.56534 -0.1736918,2e-5 -1.1686519,-0.13807 -1.6443439,-0.70435 -0.826376,-0.89253 -0.00201,-1.09994 0.4625039,-1.27331 0.5055862,-0.18871 1.030887,-0.30969 1.5203212,-0.42013 0.7456988,-0.16826 0.4710618,-0.52626 0.1049028,-0.6289 -0.9266939,-0.25976 -2.044886,0.33543 -2.8654579,0.30593 -0.848406,-0.0291 -0.804618,-1.69621 -0.1405601,-1.76217 0.7394212,-0.0734 1.6665151,-0.51079 1.461779,-0.65673 -0.8303549,-0.61672 -0.9617369,-0.79081 -1.0595549,-1.16418 -0.1480201,-0.565 0.341282,-1.03557 0.05777,-0.96356 -0.2596169,0.08 -0.4110678,0.15641 -0.5988619,0.25715 -0.1672929,0.0897 -0.293814,0.0546 -0.6751841,0.002 -0.3249449,-0.045 -0.3870058,-0.0557 -0.3755009,-0.25673 0.0115,-0.20097 0.07295,-0.52125 -0.05223,-0.47648 z"
         style="fill:#7aafff;fill-opacity:1;stroke:none;stroke-width:2.01045942;stroke-linecap:round;stroke-linejoin:round;stroke-miterlimit:4;stroke-dasharray:none;stroke-opacity:1" />
    </clipPath>
    <clipPath
       id="clipPath4543-6"
       clipPathUnits="userSpaceOnUse">
      <path
         sodipodi:nodetypes="cccccczcc"
         inkscape:connector-curvature="0"
         id="path4545-2"
         d="m 1.7760088,291.5696 c -1.82613339,0.17434 -3.2940315,0.91934 -3.4903996,2.16451 -0.2629054,1.66729 1.5678591,3.34127 4.0891213,3.73893 1.2172084,0.19119 2.434234,0.053 3.3807423,-0.38387 0.7310194,0.5283 1.669357,0.90078 2.6704721,1.06008 2.5212691,0.39771 4.7783381,-0.6315 5.0412801,-2.2988 0.262905,-1.6673 -1.490667,-1.94329 -4.257163,-2.17938 -2.7664958,-0.23609 -3.6163896,-1.68839 -5.7470448,-2.04575 -0.5660191,-0.0893 -1.1380808,-0.10817 -1.6870084,-0.0557 z"
         style="opacity:1;vector-effect:none;fill:#666666;fill-opacity:1;stroke:none;stroke-width:2.11666656;stroke-linecap:round;stroke-linejoin:round;stroke-miterlimit:4;stroke-dasharray:none;stroke-dashoffset:0;stroke-opacity:1" />
    </clipPath>
  </defs>
  <sodipodi:namedview
     id="base"
     pagecolor="#ffffff"
     bordercolor="#666666"
     borderopacity="1.0"
     inkscape:pageopacity="0.0"
     inkscape:pageshadow="2"
     inkscape:zoom="7.0989585"
     inkscape:cx="14.73969"
     inkscape:cy="17.011357"
     inkscape:document-units="mm"
     inkscape:current-layer="layer2"
     showgrid="false"
     units="px"
     inkscape:window-width="1152"
     inkscape:window-height="802"
     inkscape:window-x="-8"
     inkscape:window-y="-8"
     inkscape:window-maximized="1" />
  <metadata
     id="metadata5">
    <rdf:RDF>
      <cc:Work
         rdf:about="">
        <dc:format>image/svg+xml</dc:format>
        <dc:type
           rdf:resource="http://purl.org/dc/dcmitype/StillImage" />
        <dc:title></dc:title>
      </cc:Work>
    </rdf:RDF>
  </metadata>
  <g
     inkscape:label="圖層 1"
     inkscape:groupmode="layer"
     id="layer1"
     transform="translate(0,-284.3)">
    <circle
       style="fill:#87de87;fill-opacity:1;stroke:none;stroke-width:1.74658811;stroke-linecap:round;stroke-linejoin:round;stroke-miterlimit:4;stroke-dasharray:none;stroke-opacity:1"
       id="path4514"
       cx="6.3499999"
       cy="290.64999"
       r="6.3499999" />
  </g>
  <g
     inkscape:groupmode="layer"
     id="layer3"
     inkscape:label="圖層 3"
     style="opacity:0.97">
    <path
       id="path7-3-5"
       style="fill:#217821;fill-opacity:1;stroke-width:0.27033392"
       d="M 5.434014,5.2759092 C 5.845683,5.0423203 6.254687,4.8034012 6.665467,4.5680349 7.078469,4.8038452 7.490137,5.0423203 7.903582,5.277242 7.490137,5.5134964 7.078024,5.7506388 6.665467,5.9873371 6.255575,5.7493067 5.842574,5.5157172 5.434014,5.2759092 Z M 3.64523,4.9277453 c 8.83e-4,0.2362544 4.45e-4,0.4729535 4.45e-4,0.7096512 1.007633,0.5742051 2.012159,1.1532947 3.019792,1.7266108 0.607068,-0.3503843 1.214134,-0.7012136 1.8203139,-1.0529305 0.0022,0.4640709 -0.0026,0.9276987 0.0026,1.3917697 C 7.884913,8.0621126 7.271184,8.4040601 6.66545,8.7597736 6.058384,8.4067244 5.448209,8.0581166 4.839809,7.7072865 4.437466,7.9346599 4.036455,8.1638089 3.635,8.3925136 4.641302,8.980041 5.656041,9.5533579 6.665451,10.136 7.672197,9.5582421 8.681607,8.985814 9.686576,8.4045043 9.684376,7.2449924 9.684776,6.0854809 9.686126,4.9259693 8.680718,4.3455471 7.67264,3.7691224 6.665894,3.1909204 5.658705,3.7686784 4.651959,4.3477678 3.645214,4.9277453 Z"
       inkscape:connector-curvature="0" />
  </g>
  <g
     inkscape:groupmode="layer"
     id="layer2"
     inkscape:label="圖層 2"
     style="opacity:0.97">
    <path
       id="path7-3"
       style="fill:#fffff1;fill-opacity:1;stroke-width:0.27033392"
       d="M 5.1342284,5.1757733 C 5.5458971,4.9421844 5.9549011,4.7032653 6.3656818,4.467899 6.7786832,4.7037093 7.1903514,4.9421844 7.6037968,5.1771061 7.1903514,5.4133605 6.7782385,5.6505029 6.3656818,5.8872013 5.9557891,5.6491708 5.5427889,5.4155813 5.1342284,5.1757733 Z M 3.3454445,4.8276094 c 8.831e-4,0.2362544 4.447e-4,0.4729535 4.447e-4,0.7096512 1.0076336,0.5742051 2.012159,1.1532946 3.0197926,1.7266107 0.6070673,-0.3503843 1.214134,-0.7012136 1.8203133,-1.0529305 0.00221,0.4640711 -0.00265,0.9276987 0.00265,1.3917697 C 7.5851267,7.9619765 6.9713978,8.3039242 6.3656632,8.6596375 5.7585987,8.3065885 5.1484232,7.9579806 4.5400238,7.6071506 4.1376808,7.8345238 3.73667,8.0636728 3.335215,8.2923776 4.3415164,8.8799052 5.3562557,9.4532219 6.365666,10.035864 7.3724115,9.4581063 8.3818216,8.885678 9.3867906,8.3043684 9.3845831,7.1448565 9.3850246,5.9853449 9.3863459,4.8258334 8.3809327,4.2454112 7.3728549,3.6689865 6.3661088,3.0907845 5.3589192,3.6685425 4.3521736,4.2476319 3.3454282,4.8276094 Z"
       inkscape:connector-curvature="0" />
  </g>
</svg>
