<?xml version="1.0" encoding="UTF-8" standalone="no"?>
<!-- Created with Inkscape (http://www.inkscape.org/) -->

<svg
   xmlns:dc="http://purl.org/dc/elements/1.1/"
   xmlns:cc="http://creativecommons.org/ns#"
   xmlns:rdf="http://www.w3.org/1999/02/22-rdf-syntax-ns#"
   xmlns:svg="http://www.w3.org/2000/svg"
   xmlns="http://www.w3.org/2000/svg"
   xmlns:sodipodi="http://sodipodi.sourceforge.net/DTD/sodipodi-0.dtd"
   xmlns:inkscape="http://www.inkscape.org/namespaces/inkscape"
   width="48"
   height="48"
   viewBox="0 0 12.7 12.7"
   version="1.1"
   id="svg8"
   inkscape:version="0.92.3 (2405546, 2018-03-11)"
   sodipodi:docname="adobe fw.svg">
  <defs
     id="defs2">
    <clipPath
       clipPathUnits="userSpaceOnUse"
       id="clipPath5343">
      <path
         style="fill:#7aafff;fill-opacity:1;stroke:none;stroke-width:2.01045942;stroke-linecap:round;stroke-linejoin:round;stroke-miterlimit:4;stroke-dasharray:none;stroke-opacity:1"
         d="m 3.0688351,285.55677 c -1.613568,1.19596 -2.5662181,3.08478 -2.56883509,5.09323 0,3.50701 2.84299219,6.35 6.35000009,6.35 C 10.357008,297 13.2,294.15701 13.2,290.65 c -0.0022,-0.84296 -0.452078,-2.71271 -0.500228,-2.45359 -0.02424,0.84121 -0.571809,2.35322 -0.602031,2.23138 -0.0026,-0.50621 -0.2876,-1.42626 -0.305098,-1.19509 0.02804,1.40695 -1.48374,3.17677 -2.3076623,3.50038 -0.8310457,0.36942 -1.7371637,0.56412 -2.6117267,0.56534 -0.1736918,2e-5 -1.1686519,-0.13807 -1.6443439,-0.70435 -0.826376,-0.89253 -0.00201,-1.09994 0.4625039,-1.27331 0.5055862,-0.18871 1.030887,-0.30969 1.5203212,-0.42013 0.7456988,-0.16826 0.4710618,-0.52626 0.1049028,-0.6289 -0.9266939,-0.25976 -2.044886,0.33543 -2.8654579,0.30593 -0.848406,-0.0291 -0.804618,-1.69621 -0.1405601,-1.76217 0.7394212,-0.0734 1.6665151,-0.51079 1.461779,-0.65673 -0.8303549,-0.61672 -0.9617369,-0.79081 -1.0595549,-1.16418 -0.1480201,-0.565 0.341282,-1.03557 0.05777,-0.96356 -0.2596169,0.08 -0.4110678,0.15641 -0.5988619,0.25715 -0.1672929,0.0897 -0.293814,0.0546 -0.6751841,0.002 -0.3249449,-0.045 -0.3870058,-0.0557 -0.3755009,-0.25673 0.0115,-0.20097 0.07295,-0.52125 -0.05223,-0.47648 z"
         id="path5345"
         inkscape:connector-curvature="0"
         sodipodi:nodetypes="ccscccccccssscscscssscc" />
    </clipPath>
  </defs>
  <sodipodi:namedview
     id="base"
     pagecolor="#ffffff"
     bordercolor="#666666"
     borderopacity="1.0"
     inkscape:pageopacity="0.0"
     inkscape:pageshadow="2"
     inkscape:zoom="7.0989583"
     inkscape:cx="18.638768"
     inkscape:cy="12.827618"
     inkscape:document-units="mm"
     inkscape:current-layer="layer3"
     showgrid="false"
     units="px"
     inkscape:window-width="1152"
     inkscape:window-height="802"
     inkscape:window-x="-8"
     inkscape:window-y="-8"
     inkscape:window-maximized="1" />
  <metadata
     id="metadata5">
    <rdf:RDF>
      <cc:Work
         rdf:about="">
        <dc:format>image/svg+xml</dc:format>
        <dc:type
           rdf:resource="http://purl.org/dc/dcmitype/StillImage" />
        <dc:title></dc:title>
      </cc:Work>
    </rdf:RDF>
  </metadata>
  <g
     inkscape:label="圖層 1"
     inkscape:groupmode="layer"
     id="layer1"
     transform="translate(0,-284.3)">
    <g
       id="g5349"
       transform="translate(9.536743e-8,6.1988831e-6)">
      <circle
         r="6.3499999"
         cy="290.64999"
         cx="6.3499999"
         id="path4485-753"
         style="fill:#ffccaa;fill-opacity:1;stroke:none;stroke-width:2.01045942;stroke-linecap:round;stroke-linejoin:round;stroke-miterlimit:4;stroke-dasharray:none;stroke-opacity:1" />
    </g>
  </g>
  <g
     inkscape:groupmode="layer"
     id="layer3"
     inkscape:label="Layer 2">
    <g
       aria-label="Fw"
       transform="matrix(0.52525972,0,0,0.5667289,-0.33254321,-0.18175963)"
       style="font-style:normal;font-variant:normal;font-weight:600;font-stretch:normal;font-size:10.36268711px;line-height:125%;font-family:'Source Sans Pro';-inkscape-font-specification:'Source Sans Pro Semi-Bold';letter-spacing:0px;word-spacing:0px;fill:#806600;fill-opacity:1;stroke:none;stroke-width:0.12563197px;stroke-linecap:butt;stroke-linejoin:miter;stroke-opacity:1"
       id="text846-9">
      <path
         inkscape:connector-curvature="0"
         d="M 7.4754318,15.55375 H 8.6775035 V 12.724736 H 11.143823 V 11.709193 H 8.6775035 V 9.792096 H 11.568693 V 8.7765527 H 7.4754318 Z"
         style="fill:#806600;fill-opacity:1;stroke-width:0.12563197px"
         id="path1019-2" />
      <path
         inkscape:connector-curvature="0"
         d="m 13.278639,15.55375 h 1.367875 l 0.58031,-2.362693 c 0.11399,-0.476683 0.207254,-0.953367 0.300518,-1.492227 h 0.04145 c 0.113989,0.53886 0.196891,1.005181 0.31088,1.481865 l 0.590673,2.373055 h 1.419689 L 19.18537,10.465671 H 18.0662 l -0.611398,2.642485 c -0.09326,0.487046 -0.176166,0.96373 -0.26943,1.461139 h -0.04145 c -0.113989,-0.497409 -0.217616,-0.974093 -0.341969,-1.461139 l -0.673574,-2.642485 h -1.088082 l -0.663212,2.642485 c -0.124353,0.476683 -0.227979,0.96373 -0.321244,1.461139 h -0.04145 c -0.09327,-0.497409 -0.165803,-0.974093 -0.26943,-1.461139 l -0.6114,-2.642485 H 11.93149 Z"
         style="fill:#806600;fill-opacity:1;stroke-width:0.12563197px"
         id="path1021-5" />
    </g>
  </g>
  <g
     inkscape:groupmode="layer"
     id="layer2"
     inkscape:label="Layer 1"
     transform="translate(0,-284.3)"
     sodipodi:insensitive="true">
    <g
       aria-label="Fw"
       transform="matrix(0.52525972,0,0,0.5667289,-0.55408698,283.91872)"
       style="font-style:normal;font-variant:normal;font-weight:600;font-stretch:normal;font-size:10.36268711px;line-height:125%;font-family:'Source Sans Pro';-inkscape-font-specification:'Source Sans Pro Semi-Bold';letter-spacing:0px;word-spacing:0px;fill:#e5ff80;fill-opacity:1;stroke:none;stroke-width:0.12563197px;stroke-linecap:butt;stroke-linejoin:miter;stroke-opacity:1"
       id="text846">
      <path
         inkscape:connector-curvature="0"
         d="M 7.4754318,15.55375 H 8.6775035 V 12.724736 H 11.143823 V 11.709193 H 8.6775035 V 9.792096 H 11.568693 V 8.7765527 H 7.4754318 Z"
         style="fill:#e5ff80;fill-opacity:1;stroke-width:0.12563197px"
         id="path1019" />
      <path
         inkscape:connector-curvature="0"
         d="m 13.278639,15.55375 h 1.367875 l 0.58031,-2.362693 c 0.11399,-0.476683 0.207254,-0.953367 0.300518,-1.492227 h 0.04145 c 0.113989,0.53886 0.196891,1.005181 0.31088,1.481865 l 0.590673,2.373055 h 1.419689 L 19.18537,10.465671 H 18.0662 l -0.611398,2.642485 c -0.09326,0.487046 -0.176166,0.96373 -0.26943,1.461139 h -0.04145 c -0.113989,-0.497409 -0.217616,-0.974093 -0.341969,-1.461139 l -0.673574,-2.642485 h -1.088082 l -0.663212,2.642485 c -0.124353,0.476683 -0.227979,0.96373 -0.321244,1.461139 h -0.04145 c -0.09327,-0.497409 -0.165803,-0.974093 -0.26943,-1.461139 l -0.6114,-2.642485 H 11.93149 Z"
         style="fill:#e5ff80;fill-opacity:1;stroke-width:0.12563197px"
         id="path1021" />
    </g>
  </g>
</svg>
