<?xml version="1.0" encoding="UTF-8" standalone="no"?>
<!-- Created with Inkscape (http://www.inkscape.org/) -->

<svg
   xmlns:dc="http://purl.org/dc/elements/1.1/"
   xmlns:cc="http://creativecommons.org/ns#"
   xmlns:rdf="http://www.w3.org/1999/02/22-rdf-syntax-ns#"
   xmlns:svg="http://www.w3.org/2000/svg"
   xmlns="http://www.w3.org/2000/svg"
   xmlns:xlink="http://www.w3.org/1999/xlink"
   xmlns:sodipodi="http://sodipodi.sourceforge.net/DTD/sodipodi-0.dtd"
   xmlns:inkscape="http://www.inkscape.org/namespaces/inkscape"
   width="48"
   height="48"
   viewBox="0 0 12.7 12.7"
   version="1.1"
   id="svg8"
   inkscape:version="0.92.3 (2405546, 2018-03-11)"
   sodipodi:docname="adobereader.svg">
  <defs
     id="defs2">
    <clipPath
       clipPathUnits="userSpaceOnUse"
       id="clipPath5343">
      <path
         style="fill:#7aafff;fill-opacity:1;stroke:none;stroke-width:2.01045942;stroke-linecap:round;stroke-linejoin:round;stroke-miterlimit:4;stroke-dasharray:none;stroke-opacity:1"
         d="m 3.0688351,285.55677 c -1.613568,1.19596 -2.5662181,3.08478 -2.56883509,5.09323 0,3.50701 2.84299219,6.35 6.35000009,6.35 C 10.357008,297 13.2,294.15701 13.2,290.65 c -0.0022,-0.84296 -0.452078,-2.71271 -0.500228,-2.45359 -0.02424,0.84121 -0.571809,2.35322 -0.602031,2.23138 -0.0026,-0.50621 -0.2876,-1.42626 -0.305098,-1.19509 0.02804,1.40695 -1.48374,3.17677 -2.3076623,3.50038 -0.8310457,0.36942 -1.7371637,0.56412 -2.6117267,0.56534 -0.1736918,2e-5 -1.1686519,-0.13807 -1.6443439,-0.70435 -0.826376,-0.89253 -0.00201,-1.09994 0.4625039,-1.27331 0.5055862,-0.18871 1.030887,-0.30969 1.5203212,-0.42013 0.7456988,-0.16826 0.4710618,-0.52626 0.1049028,-0.6289 -0.9266939,-0.25976 -2.044886,0.33543 -2.8654579,0.30593 -0.848406,-0.0291 -0.804618,-1.69621 -0.1405601,-1.76217 0.7394212,-0.0734 1.6665151,-0.51079 1.461779,-0.65673 -0.8303549,-0.61672 -0.9617369,-0.79081 -1.0595549,-1.16418 -0.1480201,-0.565 0.341282,-1.03557 0.05777,-0.96356 -0.2596169,0.08 -0.4110678,0.15641 -0.5988619,0.25715 -0.1672929,0.0897 -0.293814,0.0546 -0.6751841,0.002 -0.3249449,-0.045 -0.3870058,-0.0557 -0.3755009,-0.25673 0.0115,-0.20097 0.07295,-0.52125 -0.05223,-0.47648 z"
         id="path5345"
         inkscape:connector-curvature="0"
         sodipodi:nodetypes="ccscccccccssscscscssscc" />
    </clipPath>
    <linearGradient
       id="e"
       gradientUnits="userSpaceOnUse"
       x1="15.122512"
       x2="28.881227"
       xlink:href="#a"
       y1="1024.7061"
       y2="1024.7061"
       gradientTransform="matrix(0.43757659,0,0,0.43757659,-2.8878559,-158.21166)" />
    <linearGradient
       id="a">
      <stop
         offset="0"
         stop-color="#f6fbff"
         id="stop2-9" />
      <stop
         offset="1"
         stop-color="#eaeff2"
         id="stop4-6" />
    </linearGradient>
    <linearGradient
       id="e-6"
       gradientUnits="userSpaceOnUse"
       x1="15.122512"
       x2="28.881227"
       xlink:href="#a"
       y1="1024.7061"
       y2="1024.7061"
       gradientTransform="matrix(0.43757659,0,0,0.43757659,-3.0142264,-442.30069)" />
    <linearGradient
       id="e-5"
       gradientUnits="userSpaceOnUse"
       x1="15.122512"
       x2="28.881227"
       xlink:href="#a"
       y1="1024.7061"
       y2="1024.7061"
       gradientTransform="matrix(0.43757659,0,0,0.43757659,-3.0142261,-442.30069)" />
    <linearGradient
       id="e-2"
       gradientUnits="userSpaceOnUse"
       x1="15.122512"
       x2="28.881227"
       xlink:href="#a"
       y1="1024.7061"
       y2="1024.7061"
       gradientTransform="matrix(0.43757659,0,0,0.43757659,-3.0142268,-442.30069)" />
  </defs>
  <sodipodi:namedview
     id="base"
     pagecolor="#ffffff"
     bordercolor="#666666"
     borderopacity="1.0"
     inkscape:pageopacity="0.0"
     inkscape:pageshadow="2"
     inkscape:zoom="12.5625"
     inkscape:cx="24"
     inkscape:cy="25.227776"
     inkscape:document-units="mm"
     inkscape:current-layer="layer3"
     showgrid="false"
     units="px"
     inkscape:window-width="1152"
     inkscape:window-height="802"
     inkscape:window-x="-8"
     inkscape:window-y="-8"
     inkscape:window-maximized="1" />
  <metadata
     id="metadata5">
    <rdf:RDF>
      <cc:Work
         rdf:about="">
        <dc:format>image/svg+xml</dc:format>
        <dc:type
           rdf:resource="http://purl.org/dc/dcmitype/StillImage" />
        <dc:title></dc:title>
      </cc:Work>
    </rdf:RDF>
  </metadata>
  <g
     inkscape:label="圖層 1"
     inkscape:groupmode="layer"
     id="layer1"
     transform="translate(0,-284.3)"
     sodipodi:insensitive="true">
    <circle
       style="fill:#ff8080;fill-opacity:1;stroke:none;stroke-width:1.74658811;stroke-linecap:round;stroke-linejoin:round;stroke-miterlimit:4;stroke-dasharray:none;stroke-opacity:1"
       id="path4514"
       cx="6.3499999"
       cy="290.64999"
       r="6.3499999" />
  </g>
  <g
     inkscape:groupmode="layer"
     id="layer3"
     inkscape:label="圖層 3">
    <path
       inkscape:connector-curvature="0"
       style="fill:#aa0000;fill-opacity:1;stroke-width:0.43757659"
       id="path27-0"
       d="M 9.6260601,6.8714731 C 9.5057161,6.7529336 9.2388161,6.6901411 8.8326741,6.6848026 8.5577501,6.6804264 8.2268491,6.7058053 7.8787991,6.7546839 7.7229516,6.6647615 7.5623456,6.5669194 7.4362416,6.4490803 7.0970646,6.1323624 6.8139436,5.6927292 6.6375226,5.2092946 c 0.0115,-0.045158 0.02128,-0.084846 0.03039,-0.1253221 0,0 0.191049,-1.08519 0.140476,-1.4520542 -0.007,-0.050321 -0.01124,-0.064936 -0.02477,-0.1040555 l -0.0166,-0.042445 C 6.7150586,3.3655656 6.6131666,3.238581 6.4534226,3.2454944 l -0.09368,-0.00438 -0.0026,-4.36e-5 c -0.178131,0 -0.323314,0.091103 -0.361426,0.2272771 -0.115842,0.4270746 0.0037,1.0660242 0.220306,1.8935688 L 6.1605886,5.4967389 C 6.0054836,5.874805 5.8111156,6.2556281 5.6396226,6.5915555 l -0.0223,0.043757 c -0.180415,0.3530813 -0.34412,0.6528211 -0.492521,0.9067031 l -0.153225,0.081039 c -0.01116,0.00569 -0.273757,0.1447504 -0.335352,0.1820318 -0.5225238,0.3119921 -0.8687794,0.6661668 -0.9262263,0.9472221 -0.018286,0.08966 -0.00467,0.2044358 0.088295,0.2576015 L 3.9464905,9.084473 C 4.0107775,9.116854 4.0785687,9.133 4.1480196,9.133 c 0.3721599,0 0.8042219,-0.4636122 1.3994139,-1.5023315 0.687194,-0.223733 1.469591,-0.4096594 2.155296,-0.5122272 0.5225576,0.2942264 1.1652576,0.4985747 1.5709066,0.4985747 0.07203,0 0.134111,-0.007 0.184565,-0.02013 0.0778,-0.020566 0.143371,-0.06498 0.183347,-0.1251466 0.07869,-0.1184516 0.09466,-0.2815802 0.07329,-0.4486468 -0.0064,-0.049534 -0.04597,-0.1108385 -0.0888,-0.1526704 z M 4.0673657,8.8517698 c 0.067859,-0.1855764 0.3365029,-0.5523968 0.7337039,-0.87791 0.02497,-0.020129 0.08648,-0.077889 0.142813,-0.1314043 -0.415368,0.662491 -0.6935268,0.9265246 -0.8765169,1.0093143 z M 6.4199596,3.4341775 c 0.119634,0 0.18768,0.3015778 0.193335,0.5842524 0.0056,0.2827182 -0.06048,0.4811155 -0.142491,0.6279225 -0.06793,-0.2173443 -0.100757,-0.5599233 -0.100757,-0.7839623 0,0 -0.005,-0.4282126 0.04991,-0.4282126 z M 5.7181706,7.294872 c 0.08333,-0.14917 0.170037,-0.3064785 0.258637,-0.4733266 0.215972,-0.4084341 0.352368,-0.727996 0.453954,-0.9907169 0.202037,0.3676081 0.453649,0.6800815 0.749434,0.9304625 0.03689,0.031068 0.07598,0.062617 0.117041,0.093904 -0.601488,0.1190211 -1.121355,0.2637714 -1.579066,0.439677 z M 9.5104901,7.261179 c -0.03664,0.022757 -0.141577,0.036319 -0.20908,0.036319 -0.217851,0 -0.487394,-0.099592 -0.86526,-0.2615835 0.145183,-0.01094 0.278313,-0.01619 0.397694,-0.01619 0.218509,0 0.283238,0 0.496905,0.053516 0.213671,0.054522 0.216362,0.1652288 0.179741,0.188114 z" />
  </g>
  <g
     inkscape:groupmode="layer"
     id="layer2"
     inkscape:label="圖層 2"
     sodipodi:insensitive="true">
    <path
       inkscape:connector-curvature="0"
       style="fill:url(#e-6);stroke-width:0.43757659"
       id="path27"
       d="M 9.5260825,6.7711684 C 9.4057385,6.6526289 9.1388385,6.5898364 8.7326965,6.5844979 8.4577725,6.5801217 8.1268715,6.6055006 7.7788205,6.6543792 7.6229735,6.5644568 7.4623665,6.4666147 7.3362635,6.3487756 6.9970855,6.0320577 6.7139649,5.5924244 6.537544,5.1089898 c 0.011496,-0.045158 0.02128,-0.084846 0.03039,-0.1253221 0,0 0.191049,-1.0851899 0.1404761,-1.4520541 -0.00696,-0.050321 -0.011242,-0.064936 -0.024768,-0.1040555 L 6.6670461,3.385113 C 6.6150849,3.2652608 6.5131941,3.1382761 6.3534506,3.1451896 l -0.093679,-0.00438 -0.0026,-4.36e-5 c -0.1781309,0 -0.3233141,0.091103 -0.3614255,0.2272771 -0.1158419,0.4270746 0.00367,1.0660241 0.2203055,1.8935687 L 6.0606099,5.3964341 C 5.9055051,5.7745002 5.7111376,6.1553234 5.539644,6.4912508 L 5.517346,6.5350078 C 5.3369291,6.8880891 5.1732239,7.1878289 5.0248235,7.4417109 L 4.8715983,7.5227501 C 4.8604398,7.5284387 4.5978409,7.6675005 4.5362462,7.7047819 4.0137224,8.016774 3.6674668,8.3709487 3.6100199,8.6520043 c -0.018286,0.08966 -0.00467,0.204436 0.088295,0.257601 l 0.1481973,0.07456 c 0.064287,0.03238 0.1320782,0.04853 0.2015291,0.04853 0.3721601,0 0.804222,-0.463612 1.3994136,-1.5023313 0.6871947,-0.223733 1.469591,-0.4096594 2.1552966,-0.5122272 0.522558,0.2942264 1.165257,0.4985747 1.570907,0.4985747 0.07203,0 0.13411,-0.007 0.184565,-0.02013 0.0778,-0.020566 0.143371,-0.06498 0.183347,-0.1251466 0.07869,-0.1184516 0.09466,-0.2815802 0.07329,-0.4486468 -0.0064,-0.049534 -0.04597,-0.1108385 -0.0888,-0.1526704 z M 3.9673873,8.7514653 C 4.0352466,8.5658887 4.3038902,8.1990683 4.701091,7.8735551 4.7260626,7.8534256 4.7875745,7.7956665 4.8439039,7.7421508 4.4285365,8.4046418 4.1503774,8.6686753 3.9673873,8.7514653 Z M 6.319981,3.3338728 c 0.1196343,0 0.1876801,0.3015778 0.1933348,0.5842524 0.00564,0.2827181 -0.060477,0.4811154 -0.1424911,0.6279224 C 6.3028977,4.3287033 6.2700685,3.9861244 6.2700685,3.7620853 c 0,0 -0.00499,-0.4282125 0.049913,-0.4282125 z M 5.6181918,7.1945673 c 0.083334,-0.14917 0.1700378,-0.3064785 0.2586378,-0.4733266 0.2159711,-0.4084341 0.3523673,-0.727996 0.4539531,-0.990717 0.2020376,0.3676082 0.453649,0.6800816 0.7494348,0.9304626 0.036892,0.031068 0.075984,0.062617 0.117041,0.093904 -0.6014888,0.1190211 -1.1213549,0.2637714 -1.5790667,0.439677 z m 3.7923197,-0.033693 c -0.03664,0.022757 -0.141576,0.036319 -0.20908,0.036319 -0.21785,0 -0.487393,-0.099592 -0.86526,-0.2615835 0.145184,-0.01094 0.278314,-0.01619 0.397694,-0.01619 0.21851,0 0.283239,0 0.496906,0.053516 0.21367,0.054522 0.216362,0.1652288 0.17974,0.188114 z" />
    <path
       inkscape:connector-curvature="0"
       style="fill:url(#e-5);stroke-width:0.43757659"
       id="path27-3"
       d="M 9.5260828,6.7711684 C 9.4057388,6.6526289 9.1388388,6.5898364 8.7326968,6.5844979 8.4577728,6.5801217 8.1268718,6.6055006 7.7788208,6.6543792 7.6229738,6.5644568 7.4623668,6.4666147 7.3362638,6.3487756 6.9970858,6.0320577 6.7139648,5.5924244 6.5375448,5.1089898 c 0.0115,-0.045158 0.02128,-0.084846 0.03039,-0.1253221 0,0 0.191049,-1.08519 0.140476,-1.4520542 -0.007,-0.050321 -0.01124,-0.064937 -0.02477,-0.1040555 l -0.0166,-0.042445 C 6.6150848,3.2652607 6.5131948,3.1382761 6.3534508,3.1451895 l -0.09368,-0.00438 -0.0026,-4.35e-5 c -0.178131,0 -0.323315,0.091103 -0.361426,0.2272771 -0.115842,0.4270746 0.0037,1.0660242 0.220306,1.8935688 l -0.05545,0.1348176 c -0.155104,0.378066 -0.349472,0.7588892 -0.520965,1.0948167 l -0.0223,0.043757 c -0.180406,0.3530809 -0.344112,0.6528207 -0.492512,0.9067027 l -0.153225,0.081039 C 4.8604398,7.5284387 4.5978412,7.6675005 4.5362466,7.7047819 4.0137228,8.016774 3.6674671,8.3709487 3.6100202,8.652004 c -0.018286,0.08966 -0.00467,0.2044358 0.088295,0.2576015 l 0.1481972,0.074563 c 0.064287,0.032381 0.1320783,0.048527 0.2015292,0.048527 0.37216,0 0.8042221,-0.4636122 1.3994131,-1.5023315 0.687195,-0.223733 1.469591,-0.4096594 2.155297,-0.5122272 0.522558,0.2942264 1.165257,0.4985747 1.570907,0.4985747 0.07203,0 0.13411,-0.007 0.184565,-0.02013 0.0778,-0.020566 0.143371,-0.06498 0.183347,-0.1251466 0.07869,-0.1184516 0.09466,-0.2815802 0.07329,-0.4486468 -0.0064,-0.049534 -0.04597,-0.1108385 -0.0888,-0.1526704 z M 3.9673876,8.7514651 C 4.035247,8.5658887 4.3038905,8.1990683 4.7010914,7.8735551 4.726063,7.8534256 4.7875748,7.7956665 4.8439038,7.7421508 4.4285368,8.4046418 4.1503778,8.6686754 3.9673876,8.7514651 Z M 6.3199818,3.3338727 c 0.119634,0 0.18768,0.3015778 0.193334,0.5842524 0.0056,0.2827182 -0.06048,0.4811155 -0.142491,0.6279225 -0.06793,-0.2173443 -0.100756,-0.5599233 -0.100756,-0.7839623 0,0 -0.005,-0.4282126 0.04991,-0.4282126 z m -0.70179,3.8606946 c 0.08333,-0.14917 0.170038,-0.3064785 0.258638,-0.4733266 0.215971,-0.4084341 0.352367,-0.727996 0.453953,-0.990717 0.202038,0.3676082 0.453649,0.6800816 0.749435,0.9304626 0.03689,0.031068 0.07598,0.062617 0.117041,0.093904 -0.601489,0.1190211 -1.121355,0.2637714 -1.579067,0.439677 z m 3.79232,-0.033693 c -0.03664,0.022757 -0.141576,0.036319 -0.20908,0.036319 -0.21785,0 -0.487393,-0.099592 -0.86526,-0.2615835 0.145184,-0.01094 0.278314,-0.01619 0.397694,-0.01619 0.21851,0 0.283239,0 0.496906,0.053516 0.21367,0.054522 0.216362,0.1652288 0.17974,0.188114 z" />
  </g>
</svg>
