<?xml version="1.0" encoding="UTF-8" standalone="no"?>
<!-- Created with Inkscape (http://www.inkscape.org/) -->

<svg
   xmlns:dc="http://purl.org/dc/elements/1.1/"
   xmlns:cc="http://creativecommons.org/ns#"
   xmlns:rdf="http://www.w3.org/1999/02/22-rdf-syntax-ns#"
   xmlns:svg="http://www.w3.org/2000/svg"
   xmlns="http://www.w3.org/2000/svg"
   xmlns:sodipodi="http://sodipodi.sourceforge.net/DTD/sodipodi-0.dtd"
   xmlns:inkscape="http://www.inkscape.org/namespaces/inkscape"
   width="48"
   height="48"
   viewBox="0 0 12.7 12.7"
   version="1.1"
   id="svg8"
   inkscape:version="0.92.3 (2405546, 2018-03-11)"
   sodipodi:docname="adobe bridge.svg">
  <defs
     id="defs2">
    <clipPath
       clipPathUnits="userSpaceOnUse"
       id="clipPath5343">
      <path
         style="fill:#7aafff;fill-opacity:1;stroke:none;stroke-width:2.01045942;stroke-linecap:round;stroke-linejoin:round;stroke-miterlimit:4;stroke-dasharray:none;stroke-opacity:1"
         d="m 3.0688351,285.55677 c -1.613568,1.19596 -2.5662181,3.08478 -2.56883509,5.09323 0,3.50701 2.84299219,6.35 6.35000009,6.35 C 10.357008,297 13.2,294.15701 13.2,290.65 c -0.0022,-0.84296 -0.452078,-2.71271 -0.500228,-2.45359 -0.02424,0.84121 -0.571809,2.35322 -0.602031,2.23138 -0.0026,-0.50621 -0.2876,-1.42626 -0.305098,-1.19509 0.02804,1.40695 -1.48374,3.17677 -2.3076623,3.50038 -0.8310457,0.36942 -1.7371637,0.56412 -2.6117267,0.56534 -0.1736918,2e-5 -1.1686519,-0.13807 -1.6443439,-0.70435 -0.826376,-0.89253 -0.00201,-1.09994 0.4625039,-1.27331 0.5055862,-0.18871 1.030887,-0.30969 1.5203212,-0.42013 0.7456988,-0.16826 0.4710618,-0.52626 0.1049028,-0.6289 -0.9266939,-0.25976 -2.044886,0.33543 -2.8654579,0.30593 -0.848406,-0.0291 -0.804618,-1.69621 -0.1405601,-1.76217 0.7394212,-0.0734 1.6665151,-0.51079 1.461779,-0.65673 -0.8303549,-0.61672 -0.9617369,-0.79081 -1.0595549,-1.16418 -0.1480201,-0.565 0.341282,-1.03557 0.05777,-0.96356 -0.2596169,0.08 -0.4110678,0.15641 -0.5988619,0.25715 -0.1672929,0.0897 -0.293814,0.0546 -0.6751841,0.002 -0.3249449,-0.045 -0.3870058,-0.0557 -0.3755009,-0.25673 0.0115,-0.20097 0.07295,-0.52125 -0.05223,-0.47648 z"
         id="path5345"
         inkscape:connector-curvature="0"
         sodipodi:nodetypes="ccscccccccssscscscssscc" />
    </clipPath>
  </defs>
  <sodipodi:namedview
     id="base"
     pagecolor="#ffffff"
     bordercolor="#666666"
     borderopacity="1.0"
     inkscape:pageopacity="0.0"
     inkscape:pageshadow="2"
     inkscape:zoom="7.0989585"
     inkscape:cx="24.216379"
     inkscape:cy="11.55577"
     inkscape:document-units="mm"
     inkscape:current-layer="layer2"
     showgrid="false"
     units="px"
     inkscape:window-width="1152"
     inkscape:window-height="802"
     inkscape:window-x="-8"
     inkscape:window-y="-8"
     inkscape:window-maximized="1" />
  <metadata
     id="metadata5">
    <rdf:RDF>
      <cc:Work
         rdf:about="">
        <dc:format>image/svg+xml</dc:format>
        <dc:type
           rdf:resource="http://purl.org/dc/dcmitype/StillImage" />
        <dc:title></dc:title>
      </cc:Work>
    </rdf:RDF>
  </metadata>
  <g
     inkscape:label="圖層 1"
     inkscape:groupmode="layer"
     id="layer1"
     transform="translate(0,-284.3)">
    <circle
       style="fill:#ffb380;fill-opacity:1;stroke:none;stroke-width:2.01045942;stroke-linecap:round;stroke-linejoin:round;stroke-miterlimit:4;stroke-dasharray:none;stroke-opacity:1"
       id="path4485-753"
       cx="6.3499999"
       cy="290.64999"
       r="6.3499999" />
  </g>
  <g
     inkscape:groupmode="layer"
     id="layer3"
     inkscape:label="圖層 3"
     sodipodi:insensitive="true">
    <g
       transform="matrix(0.54371444,0,0,0.54371444,-0.53695971,-0.33092757)"
       aria-label="Au"
       style="font-style:normal;font-variant:normal;font-weight:600;font-stretch:normal;font-size:10.76398277px;line-height:125%;font-family:'Source Sans Pro';-inkscape-font-specification:'Source Sans Pro Semi-Bold';letter-spacing:0px;word-spacing:0px;fill:#552200;fill-opacity:1;stroke:none;stroke-width:0.13094975px;stroke-linecap:butt;stroke-linejoin:miter;stroke-opacity:1"
       id="text846-0">
      <path
         inkscape:connector-curvature="0"
         d="m 9.3119766,13.424728 0.2475716,-0.861119 c 0.2260436,-0.742715 0.4305593,-1.53925 0.6243108,-2.32502 h 0.04306 c 0.204516,0.775006 0.409031,1.582305 0.635075,2.32502 l 0.247572,0.861119 z m 2.6264114,2.884747 h 1.313206 L 10.958866,9.2698302 H 9.4949643 L 7.202236,16.309475 H 8.4723859 L 9.0213491,14.40425 h 2.3680759 z"
         style="fill:#552200;fill-opacity:1;stroke-width:0.13094975px"
         id="path913-1" />
      <path
         inkscape:connector-curvature="0"
         d="m 13.919114,14.339666 c 0,1.334734 0.495143,2.098977 1.625362,2.098977 0.721186,0 1.237858,-0.355212 1.700709,-0.904175 h 0.03229 l 0.09688,0.775007 h 1.011814 v -5.285116 h -1.237858 v 3.616699 c -0.398267,0.516671 -0.710423,0.73195 -1.173274,0.73195 -0.570491,0 -0.818063,-0.322919 -0.818063,-1.194802 v -3.153847 h -1.237858 z"
         style="fill:#552200;fill-opacity:1;stroke-width:0.13094975px"
         id="path915-0" />
    </g>
  </g>
  <g
     inkscape:groupmode="layer"
     id="layer2"
     inkscape:label="圖層 2">
    <g
       transform="matrix(0.54371445,0,0,0.54371445,-0.73666021,-0.63084779)"
       aria-label="Au"
       style="font-style:normal;font-variant:normal;font-weight:600;font-stretch:normal;font-size:10.76398277px;line-height:125%;font-family:'Source Sans Pro';-inkscape-font-specification:'Source Sans Pro Semi-Bold';letter-spacing:0px;word-spacing:0px;fill:#ff7f2a;fill-opacity:1;stroke:none;stroke-width:0.13094975px;stroke-linecap:butt;stroke-linejoin:miter;stroke-opacity:1"
       id="text846">
      <path
         inkscape:connector-curvature="0"
         d="m 9.3119766,13.424728 0.2475716,-0.861119 c 0.2260436,-0.742715 0.4305593,-1.53925 0.6243108,-2.32502 h 0.04306 c 0.204516,0.775006 0.409031,1.582305 0.635075,2.32502 l 0.247572,0.861119 z m 2.6264114,2.884747 h 1.313206 L 10.958866,9.2698302 H 9.4949643 L 7.202236,16.309475 H 8.4723859 L 9.0213491,14.40425 h 2.3680759 z"
         style="fill:#ff7f2a;fill-opacity:1;stroke-width:0.13094975px"
         id="path913" />
      <path
         inkscape:connector-curvature="0"
         d="m 13.919114,14.339666 c 0,1.334734 0.495143,2.098977 1.625362,2.098977 0.721186,0 1.237858,-0.355212 1.700709,-0.904175 h 0.03229 l 0.09688,0.775007 h 1.011814 v -5.285116 h -1.237858 v 3.616699 c -0.398267,0.516671 -0.710423,0.73195 -1.173274,0.73195 -0.570491,0 -0.818063,-0.322919 -0.818063,-1.194802 v -3.153847 h -1.237858 z"
         style="fill:#ff7f2a;fill-opacity:1;stroke-width:0.13094975px"
         id="path915" />
    </g>
  </g>
</svg>
