<?xml version="1.0" encoding="UTF-8" standalone="no"?>
<!-- Created with Inkscape (http://www.inkscape.org/) -->

<svg
   xmlns:dc="http://purl.org/dc/elements/1.1/"
   xmlns:cc="http://creativecommons.org/ns#"
   xmlns:rdf="http://www.w3.org/1999/02/22-rdf-syntax-ns#"
   xmlns:svg="http://www.w3.org/2000/svg"
   xmlns="http://www.w3.org/2000/svg"
   xmlns:sodipodi="http://sodipodi.sourceforge.net/DTD/sodipodi-0.dtd"
   xmlns:inkscape="http://www.inkscape.org/namespaces/inkscape"
   width="48"
   height="48"
   viewBox="0 0 12.7 12.7"
   version="1.1"
   id="svg8"
   inkscape:version="0.92.3 (2405546, 2018-03-11)"
   sodipodi:docname="aim.svg">
  <defs
     id="defs2">
    <inkscape:perspective
       sodipodi:type="inkscape:persp3d"
       inkscape:vp_x="13.124483 : 23.585767 : 1"
       inkscape:vp_y="0 : 1000 : 0"
       inkscape:vp_z="25.824483 : 23.585767 : 1"
       inkscape:persp3d-origin="19.474483 : 21.4691 : 1"
       id="perspective4510" />
    <clipPath
       clipPathUnits="userSpaceOnUse"
       id="clipPath5343">
      <path
         style="fill:#7aafff;fill-opacity:1;stroke:none;stroke-width:2.01045942;stroke-linecap:round;stroke-linejoin:round;stroke-miterlimit:4;stroke-dasharray:none;stroke-opacity:1"
         d="m 3.0688351,285.55677 c -1.613568,1.19596 -2.5662181,3.08478 -2.56883509,5.09323 0,3.50701 2.84299219,6.35 6.35000009,6.35 C 10.357008,297 13.2,294.15701 13.2,290.65 c -0.0022,-0.84296 -0.452078,-2.71271 -0.500228,-2.45359 -0.02424,0.84121 -0.571809,2.35322 -0.602031,2.23138 -0.0026,-0.50621 -0.2876,-1.42626 -0.305098,-1.19509 0.02804,1.40695 -1.48374,3.17677 -2.3076623,3.50038 -0.8310457,0.36942 -1.7371637,0.56412 -2.6117267,0.56534 -0.1736918,2e-5 -1.1686519,-0.13807 -1.6443439,-0.70435 -0.826376,-0.89253 -0.00201,-1.09994 0.4625039,-1.27331 0.5055862,-0.18871 1.030887,-0.30969 1.5203212,-0.42013 0.7456988,-0.16826 0.4710618,-0.52626 0.1049028,-0.6289 -0.9266939,-0.25976 -2.044886,0.33543 -2.8654579,0.30593 -0.848406,-0.0291 -0.804618,-1.69621 -0.1405601,-1.76217 0.7394212,-0.0734 1.6665151,-0.51079 1.461779,-0.65673 -0.8303549,-0.61672 -0.9617369,-0.79081 -1.0595549,-1.16418 -0.1480201,-0.565 0.341282,-1.03557 0.05777,-0.96356 -0.2596169,0.08 -0.4110678,0.15641 -0.5988619,0.25715 -0.1672929,0.0897 -0.293814,0.0546 -0.6751841,0.002 -0.3249449,-0.045 -0.3870058,-0.0557 -0.3755009,-0.25673 0.0115,-0.20097 0.07295,-0.52125 -0.05223,-0.47648 z"
         id="path5345"
         inkscape:connector-curvature="0"
         sodipodi:nodetypes="ccscccccccssscscscssscc" />
    </clipPath>
    <clipPath
       clipPathUnits="userSpaceOnUse"
       id="clipPath4543">
      <path
         style="opacity:1;vector-effect:none;fill:#666666;fill-opacity:1;stroke:none;stroke-width:2.11666656;stroke-linecap:round;stroke-linejoin:round;stroke-miterlimit:4;stroke-dasharray:none;stroke-dashoffset:0;stroke-opacity:1"
         d="m 1.7760088,291.5696 c -1.82613339,0.17434 -3.2940315,0.91934 -3.4903996,2.16451 -0.2629054,1.66729 1.5678591,3.34127 4.0891213,3.73893 1.2172084,0.19119 2.434234,0.053 3.3807423,-0.38387 0.7310194,0.5283 1.669357,0.90078 2.6704721,1.06008 2.5212691,0.39771 4.7783381,-0.6315 5.0412801,-2.2988 0.262905,-1.6673 -1.490667,-1.94329 -4.257163,-2.17938 -2.7664958,-0.23609 -3.6163896,-1.68839 -5.7470448,-2.04575 -0.5660191,-0.0893 -1.1380808,-0.10817 -1.6870084,-0.0557 z"
         id="path4545"
         inkscape:connector-curvature="0"
         sodipodi:nodetypes="cccccczcc" />
    </clipPath>
  </defs>
  <sodipodi:namedview
     id="base"
     pagecolor="#ffffff"
     bordercolor="#666666"
     borderopacity="1.0"
     inkscape:pageopacity="0.0"
     inkscape:pageshadow="2"
     inkscape:zoom="8.8830289"
     inkscape:cx="29.529045"
     inkscape:cy="29.344065"
     inkscape:document-units="mm"
     inkscape:current-layer="layer2"
     showgrid="false"
     units="px"
     inkscape:window-width="1152"
     inkscape:window-height="802"
     inkscape:window-x="-8"
     inkscape:window-y="-8"
     inkscape:window-maximized="1" />
  <metadata
     id="metadata5">
    <rdf:RDF>
      <cc:Work
         rdf:about="">
        <dc:format>image/svg+xml</dc:format>
        <dc:type
           rdf:resource="http://purl.org/dc/dcmitype/StillImage" />
        <dc:title></dc:title>
      </cc:Work>
    </rdf:RDF>
  </metadata>
  <g
     inkscape:label="圖層 1"
     inkscape:groupmode="layer"
     id="layer1"
     transform="translate(0,-284.3)"
     sodipodi:insensitive="true">
    <circle
       style="fill:#ffb380;fill-opacity:1;stroke:none;stroke-width:1.74658811;stroke-linecap:round;stroke-linejoin:round;stroke-miterlimit:4;stroke-dasharray:none;stroke-opacity:1"
       id="path4514"
       cx="6.3499999"
       cy="290.64999"
       r="6.3499999" />
    <g
       id="g4818"
       transform="translate(-0.06927151,-1.2430045)" />
  </g>
  <g
     inkscape:groupmode="layer"
     id="layer3"
     inkscape:label="圖層 3" />
  <g
     inkscape:groupmode="layer"
     id="layer2"
     inkscape:label="圖層 2">
    <g
       id="g914"
       transform="matrix(0.92991711,0,0,0.92991711,0.44005741,0.36542526)"
       style="stroke-width:1.07536471">
      <path
         id="rect3005-8"
         d="M 7.2575973,3.2888513 C 6.2564547,3.2854322 5.2040914,3.697969 4.6044386,4.3416037 4.1082764,4.8741572 3.7304566,5.6298529 3.5798316,6.39102 c -0.1192558,0.6026444 -0.098251,1.1167573 0.065841,1.610868 0.2344359,0.7059293 0.8064778,1.2528182 1.4583632,1.3942432 0.1474996,0.032 0.4424812,0.03179 0.6008067,-4.24e-4 0.4631373,-0.09417 0.9458288,-0.3702777 1.3652873,-0.7809836 0.06825,-0.066825 0.1293816,-0.1152149 0.1358673,-0.1075192 0.00648,0.0077 0.033145,0.070825 0.059227,0.1402881 0.08653,0.2304447 0.1781968,0.3892799 0.2893843,0.501386 0.2305381,0.2324437 0.5178205,0.2757457 0.9222515,0.1390397 0.31146,-0.10528 0.514588,-0.2507063 0.616937,-0.4416868 0.05092,-0.095011 0.05752,-0.1228884 0.06311,-0.2660991 0.0045,-0.1162368 4.6e-5,-0.1682293 -0.01647,-0.1901669 -0.01837,-0.024413 -0.07002,-0.034718 -0.269879,-0.053827 C 8.602477,8.3105057 8.562574,8.2970223 8.464104,8.1986515 8.317828,8.0525221 8.259945,7.8517457 8.273059,7.5360872 8.282674,7.3046525 8.305268,7.2038571 8.490056,6.5678387 8.669567,5.9499816 8.691393,5.856561 8.672596,5.7867534 8.643461,5.6785649 8.520873,5.5807235 8.239717,5.4413238 7.9666597,5.3059395 7.867465,5.2740783 7.7462615,5.2828456 7.658934,5.2891622 7.6363314,5.2981511 7.586872,5.3460884 7.4996566,5.4306209 7.464375,5.5346458 7.4084492,5.8722789 7.2739567,6.6842379 7.1570043,7.1147018 6.9810376,7.4454846 6.7959891,7.7933392 6.6081068,7.9548295 6.2471988,8.0762587 6.1151203,8.1206968 6.0528223,8.131546 5.8898807,8.138489 5.5877631,8.151362 5.414162,8.1068736 5.2115901,7.9646561 4.9157133,7.7569326 4.7997952,7.4167355 4.8349346,6.8592574 4.8771565,6.1894176 5.1260633,5.6090765 5.5562529,5.177486 5.8857896,4.8468765 6.2317437,4.6599235 6.7271215,4.5447549 c 0.1109281,-0.025789 0.203088,-0.031255 0.5220059,-0.03098 0.3650414,3.096e-4 0.3987896,0.00303 0.5870374,0.04755 C 8.274556,4.6650093 8.557484,4.8072294 8.832221,5.0619686 8.903111,5.1276976 8.986779,5.192192 9.018136,5.2052941 9.145207,5.2583871 9.230853,5.2187151 9.250723,5.0976059 9.264993,5.0106179 9.231763,4.677585 9.194133,4.5304497 9.007227,3.7996702 8.375447,3.3503985 7.456978,3.2951237 7.39084,3.2911437 7.3243405,3.2890737 7.2575981,3.2888437 Z"
         style="fill:#803300;fill-opacity:1;fill-rule:evenodd;stroke:none;stroke-width:0.21396193px;stroke-linecap:butt;stroke-linejoin:miter;stroke-opacity:1"
         inkscape:connector-curvature="0" />
      <path
         id="rect3005"
         d="M 7.0576926,3.0892052 C 6.0565502,3.0857861 5.0041869,3.4983229 4.4045341,4.1419576 3.9083719,4.6745111 3.5305521,5.4302068 3.3799271,6.1913739 3.2606713,6.7940183 3.2816765,7.3081312 3.4457682,7.8022418 3.6802041,8.5081711 4.252246,9.05506 4.9041314,9.1964848 c 0.1474996,0.032 0.4424812,0.031789 0.6008066,-4.136e-4 0.4631374,-0.094175 0.945829,-0.3702783 1.3652874,-0.7809843 0.06825,-0.066825 0.1293814,-0.1152149 0.1358672,-0.1075191 0.00648,0.0077 0.033145,0.070825 0.059227,0.140288 0.08653,0.2304449 0.178197,0.3892801 0.2893844,0.5013861 C 7.585242,9.1816852 7.8725245,9.224988 8.2769548,9.0882817 8.5884152,8.9830015 8.791543,8.8375752 8.8938926,8.6465948 8.9448106,8.5515839 8.9514085,8.5237064 8.9570002,8.3804956 8.9615414,8.264259 8.9570463,8.2122664 8.9405326,8.1903288 8.9221594,8.1659156 8.8705116,8.1556104 8.6706538,8.1365018 8.4025722,8.1108705 8.3626695,8.0973857 8.2641992,7.9990148 8.1179233,7.8528856 8.0600405,7.652109 8.0731547,7.3364505 8.0827702,7.1050159 8.1053637,7.0042206 8.290151,6.368202 8.4696621,5.7503449 8.4914885,5.6569244 8.4726911,5.5871168 8.4435565,5.4789188 8.3209686,5.3810774 8.0398122,5.2416777 7.7667551,5.1062934 7.6675604,5.0744322 7.5463569,5.0831995 7.4590294,5.0895161 7.4364269,5.098505 7.3869674,5.1464423 7.2997521,5.2309748 7.2644703,5.3349997 7.2085447,5.6726328 7.0740521,6.4845918 6.9570996,6.9150557 6.781133,7.2458386 6.5960846,7.5936931 6.4082023,7.7551835 6.0472942,7.8766125 5.9152158,7.9210507 5.8529178,7.9318999 5.6899761,7.9388428 5.3878586,7.951716 5.2142575,7.9072274 5.0116856,7.7650099 4.7158088,7.5572863 4.5998907,7.2170894 4.6350301,6.6596113 4.677252,5.9897716 4.9261588,5.4094304 5.3563484,4.9778399 5.6858851,4.6472304 6.0318391,4.4602774 6.5272169,4.3451088 6.638145,4.3193198 6.730305,4.3138538 7.049223,4.3141288 c 0.3650414,3.102e-4 0.3987894,0.00303 0.5870372,0.04755 0.4383911,0.1036844 0.7213196,0.2459045 0.9960563,0.5006437 0.070889,0.065729 0.1545576,0.1302234 0.1859148,0.1433255 C 8.9453026,5.058741 9.0309488,5.019069 9.0508188,4.8979598 9.0650922,4.8109719 9.0318544,4.4779389 8.9942244,4.3308036 8.8073226,3.6000241 8.1755428,3.1507524 7.2570735,3.0954776 7.1909354,3.0914982 7.1244361,3.0894278 7.0576934,3.0892003 Z"
         style="fill:#ffffff;fill-opacity:1;fill-rule:evenodd;stroke:none;stroke-width:0.21396193px;stroke-linecap:butt;stroke-linejoin:miter;stroke-opacity:1"
         inkscape:connector-curvature="0" />
    </g>
  </g>
</svg>
