<?xml version="1.0" encoding="UTF-8" standalone="no"?>
<!-- Created with Inkscape (http://www.inkscape.org/) -->

<svg
   xmlns:dc="http://purl.org/dc/elements/1.1/"
   xmlns:cc="http://creativecommons.org/ns#"
   xmlns:rdf="http://www.w3.org/1999/02/22-rdf-syntax-ns#"
   xmlns:svg="http://www.w3.org/2000/svg"
   xmlns="http://www.w3.org/2000/svg"
   xmlns:sodipodi="http://sodipodi.sourceforge.net/DTD/sodipodi-0.dtd"
   xmlns:inkscape="http://www.inkscape.org/namespaces/inkscape"
   width="48"
   height="48"
   viewBox="0 0 12.7 12.7"
   version="1.1"
   id="svg8"
   inkscape:version="0.92.3 (2405546, 2018-03-11)"
   sodipodi:docname="akonadi.svg">
  <defs
     id="defs2">
    <inkscape:perspective
       sodipodi:type="inkscape:persp3d"
       inkscape:vp_x="13.124483 : 23.585767 : 1"
       inkscape:vp_y="0 : 1000 : 0"
       inkscape:vp_z="25.824483 : 23.585767 : 1"
       inkscape:persp3d-origin="19.474483 : 21.4691 : 1"
       id="perspective4510" />
    <clipPath
       clipPathUnits="userSpaceOnUse"
       id="clipPath5343">
      <path
         style="fill:#7aafff;fill-opacity:1;stroke:none;stroke-width:2.01045942;stroke-linecap:round;stroke-linejoin:round;stroke-miterlimit:4;stroke-dasharray:none;stroke-opacity:1"
         d="m 3.0688351,285.55677 c -1.613568,1.19596 -2.5662181,3.08478 -2.56883509,5.09323 0,3.50701 2.84299219,6.35 6.35000009,6.35 C 10.357008,297 13.2,294.15701 13.2,290.65 c -0.0022,-0.84296 -0.452078,-2.71271 -0.500228,-2.45359 -0.02424,0.84121 -0.571809,2.35322 -0.602031,2.23138 -0.0026,-0.50621 -0.2876,-1.42626 -0.305098,-1.19509 0.02804,1.40695 -1.48374,3.17677 -2.3076623,3.50038 -0.8310457,0.36942 -1.7371637,0.56412 -2.6117267,0.56534 -0.1736918,2e-5 -1.1686519,-0.13807 -1.6443439,-0.70435 -0.826376,-0.89253 -0.00201,-1.09994 0.4625039,-1.27331 0.5055862,-0.18871 1.030887,-0.30969 1.5203212,-0.42013 0.7456988,-0.16826 0.4710618,-0.52626 0.1049028,-0.6289 -0.9266939,-0.25976 -2.044886,0.33543 -2.8654579,0.30593 -0.848406,-0.0291 -0.804618,-1.69621 -0.1405601,-1.76217 0.7394212,-0.0734 1.6665151,-0.51079 1.461779,-0.65673 -0.8303549,-0.61672 -0.9617369,-0.79081 -1.0595549,-1.16418 -0.1480201,-0.565 0.341282,-1.03557 0.05777,-0.96356 -0.2596169,0.08 -0.4110678,0.15641 -0.5988619,0.25715 -0.1672929,0.0897 -0.293814,0.0546 -0.6751841,0.002 -0.3249449,-0.045 -0.3870058,-0.0557 -0.3755009,-0.25673 0.0115,-0.20097 0.07295,-0.52125 -0.05223,-0.47648 z"
         id="path5345"
         inkscape:connector-curvature="0"
         sodipodi:nodetypes="ccscccccccssscscscssscc" />
    </clipPath>
    <clipPath
       clipPathUnits="userSpaceOnUse"
       id="clipPath4543">
      <path
         style="opacity:1;vector-effect:none;fill:#666666;fill-opacity:1;stroke:none;stroke-width:2.11666656;stroke-linecap:round;stroke-linejoin:round;stroke-miterlimit:4;stroke-dasharray:none;stroke-dashoffset:0;stroke-opacity:1"
         d="m 1.7760088,291.5696 c -1.82613339,0.17434 -3.2940315,0.91934 -3.4903996,2.16451 -0.2629054,1.66729 1.5678591,3.34127 4.0891213,3.73893 1.2172084,0.19119 2.434234,0.053 3.3807423,-0.38387 0.7310194,0.5283 1.669357,0.90078 2.6704721,1.06008 2.5212691,0.39771 4.7783381,-0.6315 5.0412801,-2.2988 0.262905,-1.6673 -1.490667,-1.94329 -4.257163,-2.17938 -2.7664958,-0.23609 -3.6163896,-1.68839 -5.7470448,-2.04575 -0.5660191,-0.0893 -1.1380808,-0.10817 -1.6870084,-0.0557 z"
         id="path4545"
         inkscape:connector-curvature="0"
         sodipodi:nodetypes="cccccczcc" />
    </clipPath>
  </defs>
  <sodipodi:namedview
     id="base"
     pagecolor="#ffffff"
     bordercolor="#666666"
     borderopacity="1.0"
     inkscape:pageopacity="0.0"
     inkscape:pageshadow="2"
     inkscape:zoom="8.8830289"
     inkscape:cx="29.529045"
     inkscape:cy="24.841096"
     inkscape:document-units="mm"
     inkscape:current-layer="layer3"
     showgrid="false"
     units="px"
     inkscape:window-width="1152"
     inkscape:window-height="802"
     inkscape:window-x="-8"
     inkscape:window-y="-8"
     inkscape:window-maximized="1" />
  <metadata
     id="metadata5">
    <rdf:RDF>
      <cc:Work
         rdf:about="">
        <dc:format>image/svg+xml</dc:format>
        <dc:type
           rdf:resource="http://purl.org/dc/dcmitype/StillImage" />
        <dc:title></dc:title>
      </cc:Work>
    </rdf:RDF>
  </metadata>
  <g
     inkscape:label="圖層 1"
     inkscape:groupmode="layer"
     id="layer1"
     transform="translate(0,-284.3)">
    <circle
       style="fill:#87cdde;fill-opacity:1;stroke:none;stroke-width:1.74658811;stroke-linecap:round;stroke-linejoin:round;stroke-miterlimit:4;stroke-dasharray:none;stroke-opacity:1"
       id="path4514"
       cx="6.3499999"
       cy="290.64999"
       r="6.3499999" />
    <g
       id="g4818"
       transform="translate(-0.06927151,-1.2430045)" />
  </g>
  <g
     inkscape:groupmode="layer"
     id="layer3"
     inkscape:label="圖層 3">
    <path
       style="fill:#164450;fill-opacity:1;stroke:none;stroke-width:0.26458338"
       d="M 6.604053,3.4308938 C 4.862248,3.4308938 3.46,4.8331416 3.46,6.5749473 c 0,0.019353 0.0024,0.038029 0.0027,0.057312 C 3.462134,6.6538143 3.46,6.6747143 3.46,6.6963983 3.46,6.9796321 3.51046,7.250412 3.598507,7.5028793 3.99271,8.788766 5.185654,9.719 6.604053,9.719 c 1.741806,0 3.144054,-1.402247 3.144054,-3.1440528 0,-1.7418058 -1.402248,-3.1440537 -3.144054,-3.1440534 z m 0,0.6986784 c 1.354738,0 2.445375,1.0906374 2.445375,2.4453751 0,1.3441286 -1.074015,2.4271116 -2.413989,2.4440086 0.827421,-0.261316 1.461854,-0.948837 1.645034,-1.8087845 -0.44625,0.5145183 -1.10387,0.8405985 -1.841537,0.8405985 -1.043266,0 -1.92639,-0.6500932 -2.275481,-1.5679328 0.04858,-1.3112955 1.117011,-2.3532649 2.440598,-2.3532649 z"
       id="rect4192-5"
       inkscape:connector-curvature="0" />
  </g>
  <g
     inkscape:groupmode="layer"
     id="layer2"
     inkscape:label="圖層 2"
     sodipodi:insensitive="true">
    <path
       style="fill:#ecf0f1;fill-opacity:1;stroke:none;stroke-width:0.26458335"
       d="m 6.4038314,3.3308274 c -1.7418056,0 -3.1440534,1.4022478 -3.1440534,3.1440534 0,0.019353 0.00238,0.038029 0.00273,0.057312 -5.657e-4,0.021555 -0.00273,0.042455 -0.00273,0.064139 0,0.2832338 0.050458,0.5540137 0.1385075,0.8064809 0.3942021,1.2858867 1.5871461,2.216121 3.0055459,2.216121 1.741806,0 3.1440535,-1.4022472 3.1440535,-3.1440531 0,-1.7418057 -1.4022475,-3.1440536 -3.1440535,-3.1440532 z m 0,0.6986784 c 1.3547379,0 2.445375,1.0906374 2.445375,2.445375 0,1.3441286 -1.0740156,2.427112 -2.413989,2.444009 C 7.2626376,8.6575734 7.8970714,7.9700525 8.0802508,7.110105 7.6340011,7.6246232 6.976381,7.9507035 6.2387143,7.9507035 5.1954483,7.9507035 4.312324,7.3006102 3.9632327,6.3827706 4.0118087,5.0714752 5.0802441,4.0295058 6.4038314,4.0295058 Z"
       id="rect4192"
       inkscape:connector-curvature="0" />
  </g>
</svg>
