<?xml version="1.0" encoding="UTF-8" standalone="no"?>
<!-- Created with Inkscape (http://www.inkscape.org/) -->

<svg
   xmlns:dc="http://purl.org/dc/elements/1.1/"
   xmlns:cc="http://creativecommons.org/ns#"
   xmlns:rdf="http://www.w3.org/1999/02/22-rdf-syntax-ns#"
   xmlns:svg="http://www.w3.org/2000/svg"
   xmlns="http://www.w3.org/2000/svg"
   xmlns:sodipodi="http://sodipodi.sourceforge.net/DTD/sodipodi-0.dtd"
   xmlns:inkscape="http://www.inkscape.org/namespaces/inkscape"
   width="48"
   height="48"
   viewBox="0 0 12.7 12.7"
   version="1.1"
   id="svg8"
   inkscape:version="0.92.3 (2405546, 2018-03-11)"
   sodipodi:docname="albert.svg">
  <defs
     id="defs2">
    <clipPath
       clipPathUnits="userSpaceOnUse"
       id="clipPath5343">
      <path
         style="fill:#7aafff;fill-opacity:1;stroke:none;stroke-width:2.01045942;stroke-linecap:round;stroke-linejoin:round;stroke-miterlimit:4;stroke-dasharray:none;stroke-opacity:1"
         d="m 3.0688351,285.55677 c -1.613568,1.19596 -2.5662181,3.08478 -2.56883509,5.09323 0,3.50701 2.84299219,6.35 6.35000009,6.35 C 10.357008,297 13.2,294.15701 13.2,290.65 c -0.0022,-0.84296 -0.452078,-2.71271 -0.500228,-2.45359 -0.02424,0.84121 -0.571809,2.35322 -0.602031,2.23138 -0.0026,-0.50621 -0.2876,-1.42626 -0.305098,-1.19509 0.02804,1.40695 -1.48374,3.17677 -2.3076623,3.50038 -0.8310457,0.36942 -1.7371637,0.56412 -2.6117267,0.56534 -0.1736918,2e-5 -1.1686519,-0.13807 -1.6443439,-0.70435 -0.826376,-0.89253 -0.00201,-1.09994 0.4625039,-1.27331 0.5055862,-0.18871 1.030887,-0.30969 1.5203212,-0.42013 0.7456988,-0.16826 0.4710618,-0.52626 0.1049028,-0.6289 -0.9266939,-0.25976 -2.044886,0.33543 -2.8654579,0.30593 -0.848406,-0.0291 -0.804618,-1.69621 -0.1405601,-1.76217 0.7394212,-0.0734 1.6665151,-0.51079 1.461779,-0.65673 -0.8303549,-0.61672 -0.9617369,-0.79081 -1.0595549,-1.16418 -0.1480201,-0.565 0.341282,-1.03557 0.05777,-0.96356 -0.2596169,0.08 -0.4110678,0.15641 -0.5988619,0.25715 -0.1672929,0.0897 -0.293814,0.0546 -0.6751841,0.002 -0.3249449,-0.045 -0.3870058,-0.0557 -0.3755009,-0.25673 0.0115,-0.20097 0.07295,-0.52125 -0.05223,-0.47648 z"
         id="path5345"
         inkscape:connector-curvature="0"
         sodipodi:nodetypes="ccscccccccssscscscssscc" />
    </clipPath>
    <clipPath
       clipPathUnits="userSpaceOnUse"
       id="clipPath4543">
      <path
         style="opacity:1;vector-effect:none;fill:#666666;fill-opacity:1;stroke:none;stroke-width:2.11666656;stroke-linecap:round;stroke-linejoin:round;stroke-miterlimit:4;stroke-dasharray:none;stroke-dashoffset:0;stroke-opacity:1"
         d="m 1.7760088,291.5696 c -1.82613339,0.17434 -3.2940315,0.91934 -3.4903996,2.16451 -0.2629054,1.66729 1.5678591,3.34127 4.0891213,3.73893 1.2172084,0.19119 2.434234,0.053 3.3807423,-0.38387 0.7310194,0.5283 1.669357,0.90078 2.6704721,1.06008 2.5212691,0.39771 4.7783381,-0.6315 5.0412801,-2.2988 0.262905,-1.6673 -1.490667,-1.94329 -4.257163,-2.17938 -2.7664958,-0.23609 -3.6163896,-1.68839 -5.7470448,-2.04575 -0.5660191,-0.0893 -1.1380808,-0.10817 -1.6870084,-0.0557 z"
         id="path4545"
         inkscape:connector-curvature="0"
         sodipodi:nodetypes="cccccczcc" />
    </clipPath>
  </defs>
  <sodipodi:namedview
     id="base"
     pagecolor="#ffffff"
     bordercolor="#666666"
     borderopacity="1.0"
     inkscape:pageopacity="0.0"
     inkscape:pageshadow="2"
     inkscape:zoom="12.5625"
     inkscape:cx="24"
     inkscape:cy="24"
     inkscape:document-units="mm"
     inkscape:current-layer="layer3"
     showgrid="false"
     units="px"
     inkscape:window-width="1152"
     inkscape:window-height="802"
     inkscape:window-x="-8"
     inkscape:window-y="-8"
     inkscape:window-maximized="1"
     inkscape:lockguides="false"
     inkscape:measure-start="0,0"
     inkscape:measure-end="0,0" />
  <metadata
     id="metadata5">
    <rdf:RDF>
      <cc:Work
         rdf:about="">
        <dc:format>image/svg+xml</dc:format>
        <dc:type
           rdf:resource="http://purl.org/dc/dcmitype/StillImage" />
        <dc:title></dc:title>
      </cc:Work>
    </rdf:RDF>
  </metadata>
  <g
     inkscape:label="圖層 1"
     inkscape:groupmode="layer"
     id="layer1"
     transform="translate(0,-284.3)"
     style="display:inline"
     sodipodi:insensitive="true">
    <circle
       style="fill:#80e5ff;fill-opacity:1;stroke:none;stroke-width:1.74658811;stroke-linecap:round;stroke-linejoin:round;stroke-miterlimit:4;stroke-dasharray:none;stroke-opacity:1"
       id="path4514"
       cx="6.3499999"
       cy="290.64999"
       r="6.3499999" />
  </g>
  <g
     inkscape:groupmode="layer"
     id="layer3"
     inkscape:label="圖層 3">
    <path
       id="path1002-3-9"
       d="M 10.945857,6.9211815 9.7379811,8.4310247 c -0.41563,0.243278 -1.202742,0.349408 -1.547257,0.2794421 C 7.7077851,8.6392058 7.1785541,8.1100018 6.7903734,7.5859659 6.2993113,6.9228116 5.9396057,5.9964014 5.4419316,5.4272199 4.9801604,4.8991064 4.3237103,4.5743395 3.7000237,5.0030442 3.3917443,5.2152413 3.0907111,5.596957 2.8573493,6.0054905 2.4845691,6.6575015 2.7001328,7.5052196 3.676289,7.6901752 6.5782093,7.5367748 9.1256191,5.0310368 10.64422,3.9013718 9.2704431,5.3443601 8.4225751,6.172328 5.6107014,7.7786516 4.9181966,8.1672259 4.3095481,8.4145676 3.4194044,8.6267918 2.8866708,8.7538838 2.1022161,8.8716457 1.9303656,8.3186017 1.7514097,7.7421434 2.1784541,6.8533889 2.2674231,6.6607328 2.9389113,5.2080209 3.94169,3.6997168 5.6950717,3.9237175 7.3671941,4.1375023 7.4460681,6.6895406 8.6941061,7.3601231 9.3089141,7.6901752 9.7673021,7.5243939 10.946189,6.9210603 Z"
       inkscape:connector-curvature="0"
       style="fill:#006680;fill-opacity:1;stroke-width:2.89718747" />
  </g>
  <g
     inkscape:groupmode="layer"
     id="layer2"
     inkscape:label="圖層 2"
     sodipodi:insensitive="true">
    <path
       id="path1002-3"
       d="M 10.846187,6.8213891 9.6383111,8.3312324 c -0.41563,0.243278 -1.202742,0.349408 -1.547257,0.279442 C 7.6081151,8.5394134 7.0788841,8.0102094 6.6907034,7.4861735 6.1996411,6.8230194 5.8399358,5.8966091 5.3422616,5.3274276 4.8804904,4.7993141 4.2240403,4.4745472 3.6003537,4.9032519 3.2920743,5.115449 2.9910411,5.4971647 2.7576793,5.9056982 2.3848991,6.5577091 2.6004628,7.4054273 3.576619,7.5903828 6.4785394,7.4369824 9.0259491,4.9312445 10.54455,3.8015795 9.1707731,5.2445678 8.3229051,6.0725357 5.5110313,7.6788593 4.8185265,8.0674334 4.2098781,8.3147754 3.3197344,8.5269994 2.7870008,8.6540914 2.0025461,8.7718534 1.8306956,8.2188094 1.6517397,7.6423511 2.0787842,6.7535966 2.1677531,6.5609406 2.8392413,5.1082286 3.84202,3.5999245 5.5954016,3.8239252 7.2675241,4.03771 7.3463981,6.5897483 8.5944361,7.2603308 c 0.614808,0.330052 1.073196,0.1642708 2.2520829,-0.4390629 z"
       inkscape:connector-curvature="0"
       style="fill:#ffffff;fill-opacity:1;stroke-width:2.89718747" />
  </g>
</svg>
