<?xml version="1.0" encoding="UTF-8" standalone="no"?>
<!-- Created with Inkscape (http://www.inkscape.org/) -->

<svg
   xmlns:dc="http://purl.org/dc/elements/1.1/"
   xmlns:cc="http://creativecommons.org/ns#"
   xmlns:rdf="http://www.w3.org/1999/02/22-rdf-syntax-ns#"
   xmlns:svg="http://www.w3.org/2000/svg"
   xmlns="http://www.w3.org/2000/svg"
   xmlns:sodipodi="http://sodipodi.sourceforge.net/DTD/sodipodi-0.dtd"
   xmlns:inkscape="http://www.inkscape.org/namespaces/inkscape"
   width="48"
   height="48"
   viewBox="0 0 12.7 12.7"
   version="1.1"
   id="svg8"
   inkscape:version="0.92.3 (2405546, 2018-03-11)"
   sodipodi:docname="amzon.svg">
  <defs
     id="defs2">
    <clipPath
       clipPathUnits="userSpaceOnUse"
       id="clipPath5343">
      <path
         style="fill:#7aafff;fill-opacity:1;stroke:none;stroke-width:2.01045942;stroke-linecap:round;stroke-linejoin:round;stroke-miterlimit:4;stroke-dasharray:none;stroke-opacity:1"
         d="m 3.0688351,285.55677 c -1.613568,1.19596 -2.5662181,3.08478 -2.56883509,5.09323 0,3.50701 2.84299219,6.35 6.35000009,6.35 C 10.357008,297 13.2,294.15701 13.2,290.65 c -0.0022,-0.84296 -0.452078,-2.71271 -0.500228,-2.45359 -0.02424,0.84121 -0.571809,2.35322 -0.602031,2.23138 -0.0026,-0.50621 -0.2876,-1.42626 -0.305098,-1.19509 0.02804,1.40695 -1.48374,3.17677 -2.3076623,3.50038 -0.8310457,0.36942 -1.7371637,0.56412 -2.6117267,0.56534 -0.1736918,2e-5 -1.1686519,-0.13807 -1.6443439,-0.70435 -0.826376,-0.89253 -0.00201,-1.09994 0.4625039,-1.27331 0.5055862,-0.18871 1.030887,-0.30969 1.5203212,-0.42013 0.7456988,-0.16826 0.4710618,-0.52626 0.1049028,-0.6289 -0.9266939,-0.25976 -2.044886,0.33543 -2.8654579,0.30593 -0.848406,-0.0291 -0.804618,-1.69621 -0.1405601,-1.76217 0.7394212,-0.0734 1.6665151,-0.51079 1.461779,-0.65673 -0.8303549,-0.61672 -0.9617369,-0.79081 -1.0595549,-1.16418 -0.1480201,-0.565 0.341282,-1.03557 0.05777,-0.96356 -0.2596169,0.08 -0.4110678,0.15641 -0.5988619,0.25715 -0.1672929,0.0897 -0.293814,0.0546 -0.6751841,0.002 -0.3249449,-0.045 -0.3870058,-0.0557 -0.3755009,-0.25673 0.0115,-0.20097 0.07295,-0.52125 -0.05223,-0.47648 z"
         id="path5345"
         inkscape:connector-curvature="0"
         sodipodi:nodetypes="ccscccccccssscscscssscc" />
    </clipPath>
  </defs>
  <sodipodi:namedview
     id="base"
     pagecolor="#ffffff"
     bordercolor="#666666"
     borderopacity="1.0"
     inkscape:pageopacity="0.0"
     inkscape:pageshadow="2"
     inkscape:zoom="7.0989585"
     inkscape:cx="20.170102"
     inkscape:cy="13.448519"
     inkscape:document-units="mm"
     inkscape:current-layer="layer1"
     showgrid="false"
     units="px"
     inkscape:window-width="1152"
     inkscape:window-height="802"
     inkscape:window-x="-8"
     inkscape:window-y="-8"
     inkscape:window-maximized="1"
     inkscape:measure-start="0,0"
     inkscape:measure-end="0,0" />
  <metadata
     id="metadata5">
    <rdf:RDF>
      <cc:Work
         rdf:about="">
        <dc:format>image/svg+xml</dc:format>
        <dc:type
           rdf:resource="http://purl.org/dc/dcmitype/StillImage" />
        <dc:title></dc:title>
      </cc:Work>
    </rdf:RDF>
  </metadata>
  <g
     inkscape:label="圖層 1"
     inkscape:groupmode="layer"
     id="layer1"
     transform="translate(0,-284.3)">
    <circle
       style="fill:#afe9dd;fill-opacity:1;stroke:none;stroke-width:2.01045942;stroke-linecap:round;stroke-linejoin:round;stroke-miterlimit:4;stroke-dasharray:none;stroke-opacity:1"
       id="path4485-753"
       cx="6.3499999"
       cy="290.64999"
       r="6.3499999" />
    <path
       style="fill:#ffffff;fill-rule:evenodd;stroke-width:0.26458332;opacity:1"
       d="m 6.8455647,290.46034 c 0,0.34717 0.00889,0.63591 -0.1587274,0.94348 -0.1348534,0.2499 -0.3491988,0.4038 -0.5881606,0.4038 -0.326344,0 -0.5158166,-0.2598 -0.5158166,-0.64379 0,-0.75781 0.6488668,-0.89573 1.262944,-0.89573 v 0.1925 m 0.8571083,2.16657 c -0.055618,0.0526 -0.1368881,0.0566 -0.2003757,0.0218 -0.2816461,-0.24508 -0.3324395,-0.35911 -0.4881254,-0.59328 -0.4662943,0.49803 -0.7956593,0.64684 -1.4008638,0.64684 -0.7151443,0 -1.2723534,-0.46117 -1.2723534,-1.38485 0,-0.72125 0.3740878,-1.21317 0.9056402,-1.45344 0.4604341,-0.21231 1.1052565,-0.2499 1.5981691,-0.30857 v -0.11504 c 0,-0.2113 0.016,-0.46118 -0.1020945,-0.64379 -0.1041247,-0.16381 -0.3024702,-0.2311 -0.4771892,-0.2311 -0.3243095,0 -0.6130868,0.17371 -0.6834085,0.53385 -0.014985,0.0803 -0.070347,0.15872 -0.1478078,0.16278 l -0.8243823,-0.0922 c -0.069331,-0.0168 -0.1457732,-0.0754 -0.1269835,-0.18641 0.1904713,-1.04351 1.0933299,-1.35922 1.9006682,-1.35922 0.4137182,0 0.9543785,0.11504 1.2799882,0.4424 0.413718,0.4038 0.3740877,0.94245 0.3740877,1.52884 v 1.38485 c 0,0.41677 0.1645669,0.5991 0.3205004,0.82438 0.054603,0.0795 0.066538,0.17651 -0.00202,0.23619 -0.1737121,0.15288 -0.4820178,0.43249 -0.6516731,0.59022 l -0.00305,-0.003"
       id="path10"
       inkscape:connector-curvature="0" />
    <path
       style="fill:#ff9900;fill-rule:evenodd;stroke-width:0.26458332;opacity:0.71"
       d="m 9.190036,292.70123 c -0.2310094,0.003 -0.5039726,0.0565 -0.7103158,0.20535 -0.064507,0.0457 -0.053509,0.10908 0.017857,0.1002 0.2321237,-0.029 0.7510479,-0.0924 0.8432419,0.0288 0.093205,0.12089 -0.1031303,0.62101 -0.1894808,0.84424 -0.026668,0.0676 0.029858,0.0952 0.089285,0.0437 0.3888166,-0.33219 0.4882079,-1.02862 0.4087288,-1.12895 -0.03911,-0.0502 -0.2283063,-0.0966 -0.4593199,-0.0933 z m -6.0702038,0.13392 c -0.048189,0.006 -0.069513,0.0662 -0.01885,0.11309 0.8616891,0.79847 2.0009923,1.27743 3.2657108,1.27743 0.9025865,0 1.9496542,-0.2918 2.6729696,-0.8373 l 4.952e-4,-9.9e-4 c 0.1201249,-0.0914 0.017762,-0.22617 -0.1051566,-0.1736 -0.8096492,0.35326 -1.6915187,0.52279 -2.4920065,0.52279 -1.1875464,0 -2.338281,-0.33322 -3.2677331,-0.88789 -0.020317,-0.0121 -0.039491,-0.0156 -0.055556,-0.0134 z"
       id="path12"
       inkscape:connector-curvature="0" />
  </g>
</svg>
