<?xml version="1.0" encoding="UTF-8" standalone="no"?>
<!-- Created with Inkscape (http://www.inkscape.org/) -->

<svg
   xmlns:dc="http://purl.org/dc/elements/1.1/"
   xmlns:cc="http://creativecommons.org/ns#"
   xmlns:rdf="http://www.w3.org/1999/02/22-rdf-syntax-ns#"
   xmlns:svg="http://www.w3.org/2000/svg"
   xmlns="http://www.w3.org/2000/svg"
   xmlns:sodipodi="http://sodipodi.sourceforge.net/DTD/sodipodi-0.dtd"
   xmlns:inkscape="http://www.inkscape.org/namespaces/inkscape"
   width="128"
   height="128"
   viewBox="0 0 33.866667 33.866667"
   version="1.1"
   id="svg8"
   inkscape:version="0.92.3 (2405546, 2018-03-11)"
   sodipodi:docname="bitwig-studio.svg">
  <defs
     id="defs2" />
  <sodipodi:namedview
     id="base"
     pagecolor="#ffffff"
     bordercolor="#666666"
     borderopacity="1.0"
     inkscape:pageopacity="0.0"
     inkscape:pageshadow="2"
     inkscape:zoom="4.7109375"
     inkscape:cx="64"
     inkscape:cy="64"
     inkscape:document-units="mm"
     inkscape:current-layer="layer2"
     showgrid="false"
     units="px"
     inkscape:window-width="1152"
     inkscape:window-height="802"
     inkscape:window-x="-8"
     inkscape:window-y="-8"
     inkscape:window-maximized="1"
     inkscape:lockguides="false"
     inkscape:measure-start="0,0"
     inkscape:measure-end="0,0" />
  <metadata
     id="metadata5">
    <rdf:RDF>
      <cc:Work
         rdf:about="">
        <dc:format>image/svg+xml</dc:format>
        <dc:type
           rdf:resource="http://purl.org/dc/dcmitype/StillImage" />
        <dc:title></dc:title>
      </cc:Work>
    </rdf:RDF>
  </metadata>
  <g
     inkscape:label="圖層 1"
     inkscape:groupmode="layer"
     id="layer1"
     transform="translate(0,-263.13333)"
     style="display:inline">
    <circle
       style="fill:#ff8080;fill-opacity:1;stroke:none;stroke-width:1.74658823;stroke-linecap:round;stroke-linejoin:round;stroke-miterlimit:4;stroke-dasharray:none;stroke-opacity:1"
       id="path4514"
       cx="16.908762"
       cy="280.09125"
       r="16.908762" />
  </g>
  <g
     inkscape:groupmode="layer"
     id="layer2"
     inkscape:label="圖層 2"
     style="opacity:1"
     transform="translate(0,21.166667)">
    <path
       style="opacity:1;fill:#d40000;stroke-width:0.35277775"
       d="m 10.273116,-9.7434553 c -0.9467322,0 -1.7148347,0.761876 -1.7148347,1.701759 7.467e-4,0.939512 0.7684744,1.70065 1.7148347,1.70065 0.946729,0 1.714459,-0.761138 1.714833,-1.70065 3.77e-4,-0.939883 -0.767731,-1.701759 -1.714833,-1.701759 z m 4.572888,0 c -0.94673,0 -1.714834,0.761876 -1.714834,1.701759 7.48e-4,0.939512 0.768476,1.70065 1.714834,1.70065 0.946732,0 1.714461,-0.761138 1.714833,-1.70065 3.8e-4,-0.939883 -0.76773,-1.701759 -1.714833,-1.701759 z m 4.572889,0 c -0.946729,0 -1.714832,0.761876 -1.714832,1.701759 7.47e-4,0.939512 0.768473,1.70065 1.714832,1.70065 0.946732,0 1.714463,-0.761138 1.714834,-1.70065 3.79e-4,-0.939883 -0.767731,-1.701759 -1.714834,-1.701759 z m 4.571774,0 c -0.946729,0 -1.714834,0.761876 -1.714834,1.701759 7.47e-4,0.939512 0.768475,1.70065 1.714834,1.70065 0.946733,0 1.71446,-0.761138 1.714834,-1.70065 3.79e-4,-0.939883 -0.767731,-1.701759 -1.714834,-1.701759 z m -18.2900705,4.536915 c -0.9471023,0 -1.7152048,0.761877 -1.7152048,1.701758 0,0.939883 0.7681025,1.701759 1.7152048,1.701759 0.9467304,0 1.7148339,-0.761876 1.7148339,-1.701759 0,-0.939881 -0.7681035,-1.701758 -1.7148339,-1.701758 z m 4.5725195,0 c -0.9467322,0 -1.7148347,0.761877 -1.7148347,1.701758 0,0.939883 0.7681025,1.701759 1.7148347,1.701759 0.947102,0 1.715204,-0.761876 1.714833,-1.701759 3.46e-4,-0.939881 -0.767731,-1.701758 -1.714833,-1.701758 z m 4.572888,0 c -0.94673,0 -1.714834,0.761877 -1.714834,1.701758 0,0.939883 0.768104,1.701759 1.714834,1.701759 0.947103,0 1.715206,-0.761876 1.714833,-1.701759 3.48e-4,-0.939881 -0.76773,-1.701758 -1.714833,-1.701758 z m 4.572889,0 c -0.946729,0 -1.714832,0.761877 -1.714832,1.701758 0,0.939883 0.768103,1.701759 1.714832,1.701759 0.947103,0 1.715207,-0.761876 1.714834,-1.701759 3.48e-4,-0.939881 -0.767731,-1.701758 -1.714834,-1.701758 z m 4.571774,0 c -0.946729,0 -1.714834,0.761877 -1.714834,1.701758 0,0.939883 0.768105,1.701759 1.714834,1.701759 0.947103,0 1.715207,-0.761876 1.714834,-1.701759 3.48e-4,-0.939881 -0.767731,-1.701758 -1.714834,-1.701758 z m 4.57289,0 c -0.946731,0 -1.714833,0.761877 -1.714833,1.701758 0,0.939883 0.768102,1.701759 1.714833,1.701759 0.947103,0 1.715205,-0.761876 1.714833,-1.701759 3.47e-4,-0.939881 -0.76773,-1.701758 -1.714833,-1.701758 z M 5.7005965,-0.66851739 c -0.9471023,0 -1.7152048,0.761877 -1.7152048,1.70175899 0,0.9398811 0.7681025,1.7017581 1.7152048,1.7017581 0.9467304,0 1.7148339,-0.761877 1.7148339,-1.7017581 0,-0.93988199 -0.7681035,-1.70175899 -1.7148339,-1.70175899 z m 4.5725195,0 c -0.9467322,0 -1.7148347,0.761877 -1.7148347,1.70175899 0,0.9398811 0.7681025,1.7017581 1.7148347,1.7017581 0.947102,0 1.715204,-0.761877 1.714833,-1.7017581 3.46e-4,-0.93988199 -0.767731,-1.70175899 -1.714833,-1.70175899 z m 13.717551,0 c -0.946729,0 -1.714834,0.761877 -1.714834,1.70175899 0,0.9398811 0.768105,1.7017581 1.714834,1.7017581 0.947103,0 1.715207,-0.761877 1.714834,-1.7017581 3.48e-4,-0.93988199 -0.767731,-1.70175899 -1.714834,-1.70175899 z m 4.57289,0 c -0.946731,0 -1.714833,0.761877 -1.714833,1.70175899 0,0.9398811 0.768102,1.7017581 1.714833,1.7017581 0.947103,0 1.715205,-0.761877 1.714833,-1.7017581 3.47e-4,-0.93988199 -0.76773,-1.70175899 -1.714833,-1.70175899 z m 0,0"
       id="path74-2"
       inkscape:connector-curvature="0" />
    <path
       style="fill:#ffffff;stroke-width:0.35277775"
       d="m 10.225174,-9.9436963 c -0.939513,0 -1.7017587,0.7618764 -1.7017587,1.7017587 7.43e-4,0.9395125 0.7626147,1.7006505 1.7017587,1.7006505 0.939512,0 1.701388,-0.761138 1.701758,-1.7006505 3.75e-4,-0.9398823 -0.761877,-1.7017587 -1.701758,-1.7017587 z m 4.538023,0 c -0.939513,0 -1.701759,0.7618764 -1.701759,1.7017587 7.43e-4,0.9395125 0.762615,1.7006505 1.701759,1.7006505 0.939513,0 1.701388,-0.761138 1.701758,-1.7006505 3.76e-4,-0.9398823 -0.761877,-1.7017587 -1.701758,-1.7017587 z m 4.538022,0 c -0.939512,0 -1.701757,0.7618764 -1.701757,1.7017587 7.43e-4,0.9395125 0.762614,1.7006505 1.701757,1.7006505 0.939513,0 1.70139,-0.761138 1.701759,-1.7006505 3.75e-4,-0.9398823 -0.761877,-1.7017587 -1.701759,-1.7017587 z m 4.536916,0 c -0.939512,0 -1.701759,0.7618764 -1.701759,1.7017587 7.43e-4,0.9395125 0.762615,1.7006505 1.701759,1.7006505 0.939513,0 1.701388,-0.761138 1.701759,-1.7006505 3.75e-4,-0.9398823 -0.761878,-1.7017587 -1.701759,-1.7017587 z m -18.1506157,4.536915 c -0.9398812,0 -1.7021269,0.7618765 -1.7021269,1.7017583 0,0.9398825 0.7622457,1.701759 1.7021269,1.701759 0.939512,0 1.701759,-0.7618765 1.701759,-1.701759 0,-0.9398818 -0.762247,-1.7017583 -1.701759,-1.7017583 z m 4.5376547,0 c -0.939513,0 -1.7017587,0.7618765 -1.7017587,1.7017583 0,0.9398825 0.7622457,1.701759 1.7017587,1.701759 0.939881,0 1.702127,-0.7618765 1.701758,-1.701759 3.49e-4,-0.9398818 -0.761877,-1.7017583 -1.701758,-1.7017583 z m 4.538023,0 c -0.939513,0 -1.701759,0.7618765 -1.701759,1.7017583 0,0.9398825 0.762246,1.701759 1.701759,1.701759 0.939881,0 1.702127,-0.7618765 1.701758,-1.701759 3.49e-4,-0.9398818 -0.761877,-1.7017583 -1.701758,-1.7017583 z m 4.538022,0 c -0.939512,0 -1.701757,0.7618765 -1.701757,1.7017583 0,0.9398825 0.762245,1.701759 1.701757,1.701759 0.939882,0 1.702128,-0.7618765 1.701759,-1.701759 3.49e-4,-0.9398818 -0.761877,-1.7017583 -1.701759,-1.7017583 z m 4.536916,0 c -0.939512,0 -1.701759,0.7618765 -1.701759,1.7017583 0,0.9398825 0.762247,1.701759 1.701759,1.701759 0.939881,0 1.702128,-0.7618765 1.701759,-1.701759 3.48e-4,-0.9398818 -0.761878,-1.7017583 -1.701759,-1.7017583 z m 4.538023,0 c -0.939513,0 -1.701758,0.7618765 -1.701758,1.7017583 0,0.9398825 0.762245,1.701759 1.701758,1.701759 0.939881,0 1.702127,-0.7618765 1.701758,-1.701759 3.49e-4,-0.9398818 -0.761877,-1.7017583 -1.701758,-1.7017583 z M 5.6875193,-0.86875863 c -0.9398812,0 -1.7021269,0.7618771 -1.7021269,1.7017589 0,0.93988193 0.7622457,1.70175903 1.7021269,1.70175903 0.939512,0 1.701759,-0.7618771 1.701759,-1.70175903 0,-0.9398818 -0.762247,-1.7017589 -1.701759,-1.7017589 z m 4.5376547,0 c -0.939513,0 -1.7017587,0.7618771 -1.7017587,1.7017589 0,0.93988193 0.7622457,1.70175903 1.7017587,1.70175903 0.939881,0 1.702127,-0.7618771 1.701758,-1.70175903 3.49e-4,-0.9398818 -0.761877,-1.7017589 -1.701758,-1.7017589 z m 13.612961,0 c -0.939512,0 -1.701759,0.7618771 -1.701759,1.7017589 0,0.93988193 0.762247,1.70175903 1.701759,1.70175903 0.939881,0 1.702128,-0.7618771 1.701759,-1.70175903 3.48e-4,-0.9398818 -0.761878,-1.7017589 -1.701759,-1.7017589 z m 4.538023,0 c -0.939513,0 -1.701758,0.7618771 -1.701758,1.7017589 0,0.93988193 0.762245,1.70175903 1.701758,1.70175903 0.939881,0 1.702127,-0.7618771 1.701758,-1.70175903 3.49e-4,-0.9398818 -0.761877,-1.7017589 -1.701758,-1.7017589 z m 0,0"
       id="path74"
       inkscape:connector-curvature="0" />
  </g>
</svg>
