<?xml version="1.0" encoding="UTF-8" standalone="no"?>
<!-- Created with Inkscape (http://www.inkscape.org/) -->

<svg
   xmlns:dc="http://purl.org/dc/elements/1.1/"
   xmlns:cc="http://creativecommons.org/ns#"
   xmlns:rdf="http://www.w3.org/1999/02/22-rdf-syntax-ns#"
   xmlns:svg="http://www.w3.org/2000/svg"
   xmlns="http://www.w3.org/2000/svg"
   xmlns:sodipodi="http://sodipodi.sourceforge.net/DTD/sodipodi-0.dtd"
   xmlns:inkscape="http://www.inkscape.org/namespaces/inkscape"
   width="128"
   height="128"
   viewBox="0 0 33.866667 33.866667"
   version="1.1"
   id="svg8"
   inkscape:version="0.92.3 (2405546, 2018-03-11)"
   sodipodi:docname="bomi.svg">
  <defs
     id="defs2" />
  <sodipodi:namedview
     id="base"
     pagecolor="#ffffff"
     bordercolor="#666666"
     borderopacity="1.0"
     inkscape:pageopacity="0.0"
     inkscape:pageshadow="2"
     inkscape:zoom="3.6177411"
     inkscape:cx="61.789642"
     inkscape:cy="48.845093"
     inkscape:document-units="mm"
     inkscape:current-layer="layer2"
     showgrid="false"
     units="px"
     inkscape:window-width="1152"
     inkscape:window-height="802"
     inkscape:window-x="-8"
     inkscape:window-y="-8"
     inkscape:window-maximized="1"
     inkscape:lockguides="false"
     inkscape:measure-start="0,0"
     inkscape:measure-end="0,0" />
  <metadata
     id="metadata5">
    <rdf:RDF>
      <cc:Work
         rdf:about="">
        <dc:format>image/svg+xml</dc:format>
        <dc:type
           rdf:resource="http://purl.org/dc/dcmitype/StillImage" />
        <dc:title></dc:title>
      </cc:Work>
    </rdf:RDF>
  </metadata>
  <g
     inkscape:label="圖層 1"
     inkscape:groupmode="layer"
     id="layer1"
     transform="translate(0,-263.13333)"
     style="display:inline">
    <circle
       style="fill:#ffb380;fill-opacity:1;stroke:none;stroke-width:1.74658823;stroke-linecap:round;stroke-linejoin:round;stroke-miterlimit:4;stroke-dasharray:none;stroke-opacity:1"
       id="path4514"
       cx="16.908762"
       cy="280.09125"
       r="16.908762" />
  </g>
  <g
     inkscape:groupmode="layer"
     id="layer2"
     inkscape:label="圖層 2"
     style="opacity:1"
     transform="translate(0,21.166667)">
    <path
       id="path954-6-1"
       d="m 17.24242,-15.482518 a 11.409052,11.409052 0 0 0 -1.901508,0.161552 V 0.68022891 c 0,0.52671979 -0.424038,0.95075499 -0.950756,0.95075499 h -0.950754 c -0.526717,0 -0.950754,-0.4240352 -0.950754,-0.95075499 V -14.430109 A 11.409052,11.409052 0 0 0 5.8333681,-4.0735424 11.409052,11.409052 0 0 0 17.24242,7.3355103 11.409052,11.409052 0 0 0 28.651472,-4.0735424 11.409052,11.409052 0 0 0 17.24242,-15.482595 Z m -0.471661,5.7045255 a 0.47542472,0.518646 0 0 1 0.226547,0.06503 l 8.55679,5.1864606 a 0.47542472,0.518646 0 0 1 0,0.9061824 l -8.55679,5.1864606 a 0.47542472,0.518646 0 0 1 -0.70546,-0.452559 V -9.2591478 a 0.47542472,0.518646 0 0 1 0.47918,-0.5181614 z"
       inkscape:connector-curvature="0"
       style="fill:#ffffff;stroke-width:3.67503166" />
  </g>
</svg>
